<svg display="none" xmlns="http://www.w3.org/2000/svg">
	<symbol id="login_icon" viewBox="0 0 499.1 499.1">
		<g>
			<path d="M0,249.6c0,9.5,7.7,17.2,17.2,17.2h327.6l-63.9,63.8c-6.7,6.7-6.7,17.6,0,24.3c3.3,3.3,7.7,5,12.1,5s8.8-1.7,12.1-5
				l93.1-93.1c6.7-6.7,6.7-17.6,0-24.3l-93.1-93.1c-6.7-6.7-17.6-6.7-24.3,0c-6.7,6.7-6.7,17.6,0,24.3l63.8,63.8H17.2
				C7.7,232.5,0,240.1,0,249.6z"/>
			<path d="M396.4,494.2c56.7,0,102.7-46.1,102.7-102.8V107.7C499.1,51,453,4.9,396.4,4.9H112.7C56,4.9,10,51,10,107.7V166
				c0,9.5,7.7,17.1,17.1,17.1c9.5,0,17.2-7.7,17.2-17.1v-58.3c0-37.7,30.7-68.5,68.4-68.5h283.7c37.7,0,68.4,30.7,68.4,68.5v283.7
				c0,37.7-30.7,68.5-68.4,68.5H112.7c-37.7,0-68.4-30.7-68.4-68.5v-57.6c0-9.5-7.7-17.2-17.2-17.2S10,324.3,10,333.8v57.6
				c0,56.7,46.1,102.8,102.7,102.8H396.4L396.4,494.2z"/>
		</g>
	</symbol>
	<symbol id="registration_icon" viewBox="0 0 24 24">
		<g id="Profile">
			<path id="Stroke 1" fill-rule="evenodd" clip-rule="evenodd" d="M11.8445 21.6618C8.15273 21.6618 5 21.0873 5 18.7865C5 16.4858 8.13273 14.3618 11.8445 14.3618C15.5364 14.3618 18.6891 16.4652 18.6891 18.766C18.6891 21.0658 15.5564 21.6618 11.8445 21.6618Z" stroke-width="1.7" stroke-linecap="round" stroke-linejoin="round"/>
			<path id="Stroke 3" fill-rule="evenodd" clip-rule="evenodd" d="M11.8372 11.1735C14.26 11.1735 16.2236 9.2099 16.2236 6.78718C16.2236 4.36445 14.26 2.3999 11.8372 2.3999C9.41452 2.3999 7.44998 4.36445 7.44998 6.78718C7.4418 9.20172 9.3918 11.1654 11.8063 11.1735C11.8172 11.1735 11.8272 11.1735 11.8372 11.1735Z" stroke-width="1.7" stroke-linecap="round" stroke-linejoin="round"/>
		</g>
	</symbol>
	<symbol id="drop_arrow" viewBox="0 0 330 330">
		<path id="XMLID_224_" d="M325.606,229.393l-150.004-150C172.79,76.58,168.974,75,164.996,75c-3.979,0-7.794,1.581-10.607,4.394
		l-149.996,150c-5.858,5.858-5.858,15.355,0,21.213c5.857,5.857,15.355,5.858,21.213,0l139.39-139.393l139.397,139.393
		C307.322,253.536,311.161,255,315,255c3.839,0,7.678-1.464,10.607-4.394C331.464,244.748,331.464,235.251,325.606,229.393z"/>
	</symbol>
	<symbol id="heart" viewBox="0 -0.43 29.956 29.956">
		<path id="_10_-_Love-2" data-name="10 - Love" d="M16,4.986A8.785,8.785,0,0,0,3.522,4.075c-3.2,3.038-3.395,9.113-.2,15.189,2.131,4.325,7.576,8.69,12.14,11.581a1,1,0,0,0,1.07,0c4.567-2.893,10.017-7.262,12.15-11.6,3.188-6.063,2.99-12.133-.207-15.169A8.785,8.785,0,0,0,16,4.986h0ZM15.154,7.2a1,1,0,0,0,1.692,0A6.792,6.792,0,0,1,27.1,5.525h0A6.408,6.408,0,0,1,28.92,9.452a15.475,15.475,0,0,1-2.015,8.882c0,.008-.009.017-.013.025C24.98,22.251,20.161,26.115,16,28.812c-4.161-2.7-8.98-6.561-10.892-10.453,0-.008-.008-.017-.013-.025A15.483,15.483,0,0,1,3.08,9.452,6.414,6.414,0,0,1,4.9,5.525,6.792,6.792,0,0,1,15.154,7.2Z" transform="translate(-1.023 -1.896)" fill-rule="evenodd"/>
	</symbol>
	<symbol id="cart_header" viewBox="0 0 60 60">
		<path d="M11.68,13l-0.833-5h-2.99C7.411,6.28,5.859,5,4,5C1.794,5,0,6.794,0,9s1.794,4,4,4c1.859,0,3.411-1.28,3.858-3h1.294l0.5,3
		H9.614l5.171,26.016c-2.465,0.188-4.518,2.086-4.76,4.474c-0.142,1.405,0.32,2.812,1.268,3.858C12.242,48.397,13.594,49,15,49h2
		c0,3.309,2.691,6,6,6s6-2.691,6-6h11c0,3.309,2.691,6,6,6s6-2.691,6-6h4c0.553,0,1-0.447,1-1s-0.447-1-1-1h-4.35
		c-0.826-2.327-3.043-4-5.65-4s-4.824,1.673-5.65,4h-11.7c-0.826-2.327-3.043-4-5.65-4s-4.824,1.673-5.65,4H15
		c-0.842,0-1.652-0.362-2.224-0.993c-0.577-0.639-0.848-1.461-0.761-2.316c0.152-1.509,1.546-2.69,3.173-2.69h0.791
		c0.014,0,0.025,0,0.039,0h38.994C57.763,41,60,38.763,60,36.013V13H11.68z M4,11c-1.103,0-2-0.897-2-2s0.897-2,2-2s2,0.897,2,2
		S5.103,11,4,11z M46,45c2.206,0,4,1.794,4,4s-1.794,4-4,4s-4-1.794-4-4S43.794,45,46,45z M23,45c2.206,0,4,1.794,4,4s-1.794,4-4,4
		s-4-1.794-4-4S20.794,45,23,45z M58,36.013C58,37.66,56.66,39,55.013,39H16.821l-4.77-24H58V36.013z"/>
	</symbol>
	<symbol id="search_btn_header" viewBox="0 0 488.4 488.4">
		<g>
			<path d="M0,203.25c0,112.1,91.2,203.2,203.2,203.2c51.6,0,98.8-19.4,134.7-51.2l129.5,129.5c2.4,2.4,5.5,3.6,8.7,3.6
			s6.3-1.2,8.7-3.6c4.8-4.8,4.8-12.5,0-17.3l-129.6-129.5c31.8-35.9,51.2-83,51.2-134.7c0-112.1-91.2-203.2-203.2-203.2
			S0,91.15,0,203.25z M381.9,203.25c0,98.5-80.2,178.7-178.7,178.7s-178.7-80.2-178.7-178.7s80.2-178.7,178.7-178.7
			S381.9,104.65,381.9,203.25z"/>
		</g>
	</symbol>
	<symbol id="menu_icon_header" viewBox="0 0 384.97 384.97">
		<g id="Menu">
			<path d="M12.03,84.212h360.909c6.641,0,12.03-5.39,12.03-12.03c0-6.641-5.39-12.03-12.03-12.03H12.03
				C5.39,60.152,0,65.541,0,72.182C0,78.823,5.39,84.212,12.03,84.212z"/>
			<path d="M372.939,180.455H12.03c-6.641,0-12.03,5.39-12.03,12.03s5.39,12.03,12.03,12.03h360.909c6.641,0,12.03-5.39,12.03-12.03
				S379.58,180.455,372.939,180.455z"/>
			<path d="M372.939,300.758H12.03c-6.641,0-12.03,5.39-12.03,12.03c0,6.641,5.39,12.03,12.03,12.03h360.909
				c6.641,0,12.03-5.39,12.03-12.03C384.97,306.147,379.58,300.758,372.939,300.758z"/>
		</g>
	</symbol>
	<symbol id="more_arrow" viewBox="0 0 330.002 330.002">
		<path id="XMLID_105_" d="M324.001,209.25L173.997,96.75c-5.334-4-12.667-4-18,0L6.001,209.25c-6.627,4.971-7.971,14.373-3,21
		c2.947,3.93,7.451,6.001,12.012,6.001c3.131,0,6.29-0.978,8.988-3.001L164.998,127.5l141.003,105.75c6.629,4.972,16.03,3.627,21-3
		C331.972,223.623,330.628,214.221,324.001,209.25z"/>
	</symbol>
	<symbol id="back_btn_header" viewBox="0 0 486.975 486.975">
		<g>
			<path d="M473.475,230.025h-427.4l116-116c5.3-5.3,5.3-13.8,0-19.1c-5.3-5.3-13.8-5.3-19.1,0l-139,139c-5.3,5.3-5.3,13.8,0,19.1
				l139,139c2.6,2.6,6.1,4,9.5,4s6.9-1.3,9.5-4c5.3-5.3,5.3-13.8,0-19.1l-116-116h427.5c7.5,0,13.5-6,13.5-13.5
				S480.975,230.025,473.475,230.025z"/>
		</g>
	</symbol>
	<symbol id="map_marker" viewBox="0 0 24 24">
		<path d="M12,2a8,8,0,0,0-8,8c0,5.4,7.05,11.5,7.35,11.76a1,1,0,0,0,1.3,0C13,21.5,20,15.4,20,10A8,8,0,0,0,12,2Zm0,17.65c-2.13-2-6-6.31-6-9.65a6,6,0,0,1,12,0C18,13.34,14.13,17.66,12,19.65ZM12,6a4,4,0,1,0,4,4A4,4,0,0,0,12,6Zm0,6a2,2,0,1,1,2-2A2,2,0,0,1,12,12Z"/>
	</symbol>
	<symbol id="mail_svg" viewBox="0 0 474 474">
		<g>
			<path d="M437.5,59.3h-401C16.4,59.3,0,75.7,0,95.8v282.4c0,20.1,16.4,36.5,36.5,36.5h401c20.1,0,36.5-16.4,36.5-36.5V95.8
				C474,75.7,457.6,59.3,437.5,59.3z M432.2,86.3L239.5,251.1L46.8,86.3H432.2z M447,378.2c0,5.2-4.3,9.5-9.5,9.5h-401
				c-5.2,0-9.5-4.3-9.5-9.5V104.9l203.7,174.2c0.1,0.1,0.3,0.2,0.4,0.3c0.1,0.1,0.3,0.2,0.4,0.3c0.3,0.2,0.5,0.4,0.8,0.5
				c0.1,0.1,0.2,0.1,0.3,0.2c0.4,0.2,0.8,0.4,1.2,0.6c0.1,0,0.2,0.1,0.3,0.1c0.3,0.1,0.6,0.3,1,0.4c0.1,0,0.3,0.1,0.4,0.1
				c0.3,0.1,0.6,0.2,0.9,0.2c0.1,0,0.3,0.1,0.4,0.1c0.3,0.1,0.7,0.1,1,0.2c0.1,0,0.2,0,0.3,0c0.4,0,0.9,0.1,1.3,0.1l0,0l0,0
				c0.4,0,0.9,0,1.3-0.1c0.1,0,0.2,0,0.3,0c0.3,0,0.7-0.1,1-0.2c0.1,0,0.3-0.1,0.4-0.1c0.3-0.1,0.6-0.2,0.9-0.2c0.1,0,0.3-0.1,0.4-0.1
				c0.3-0.1,0.6-0.2,1-0.4c0.1,0,0.2-0.1,0.3-0.1c0.4-0.2,0.8-0.4,1.2-0.6c0.1-0.1,0.2-0.1,0.3-0.2c0.3-0.2,0.5-0.3,0.8-0.5
				c0.1-0.1,0.3-0.2,0.4-0.3c0.1-0.1,0.3-0.2,0.4-0.3L447,109.2V378.2z"/>
		</g>
	</symbol>
	<symbol id="vkAvatar" viewBox="0 0 512 512">
		<rect width="512" height="512" />
		<path fill="#fff" d="M274 363c5-1 14-3 14-15 0 0-1-30 13-34s32 29 51 42c14 9 25 8 25 8l51-1s26-2 14-23c-1-2-9-15-39-42-31-30-26-25 11-76 23-31 33-50 30-57-4-7-20-6-20-6h-57c-6 0-9 1-12 6 0 0-9 25-21 45-25 43-35 45-40 42-9-5-7-24-7-37 0-45 7-61-13-65-13-2-59-4-73 3-7 4-11 11-8 12 3 0 12 1 17 7 8 13 9 75-2 81-15 11-53-62-62-86-2-6-5-7-12-9H79c-6 0-15 1-11 13 27 56 83 193 184 192z"/>
	</symbol>
	<symbol id="YouTubeAvatar" viewBox="0 0 300 300">
		<path style="fill-opacity:1" d="M0 0h400v400H0z" transform="scale(.75)"/><path style="fill:#fff;fill-opacity:1;fill-rule:nonzero;stroke:none" d="M149.938 79.223s-63.22 0-79.086 4.123c-8.496 2.374-15.492 9.37-17.866 17.99-4.123 15.867-4.123 48.727-4.123 48.727s0 32.984 4.123 48.601c2.374 8.62 9.245 15.491 17.866 17.865 15.992 4.248 79.085 4.248 79.085 4.248s63.345 0 79.211-4.123c8.621-2.374 15.492-9.12 17.74-17.865 4.249-15.742 4.249-48.601 4.249-48.601s.125-32.985-4.248-48.852c-2.25-8.62-9.12-15.491-17.74-17.74-15.867-4.373-79.212-4.373-79.212-4.373zm-20.116 40.48 52.6 30.36-52.6 30.234v-60.594z" transform="translate(0 .004) scale(1.00003)"/>
	</symbol>
	<symbol id="TwitterAvatar" viewBox="0 0 455.731 455.731">
		<g>
			<rect x="0" y="0" width="455.731" height="455.731"/>
			<path style="fill:#FFFFFF;" d="M60.377,337.822c30.33,19.236,66.308,30.368,104.875,30.368c108.349,0,196.18-87.841,196.18-196.18
				c0-2.705-0.057-5.39-0.161-8.067c3.919-3.084,28.157-22.511,34.098-35c0,0-19.683,8.18-38.947,10.107
				c-0.038,0-0.085,0.009-0.123,0.009c0,0,0.038-0.019,0.104-0.066c1.775-1.186,26.591-18.079,29.951-38.207
				c0,0-13.922,7.431-33.415,13.932c-3.227,1.072-6.605,2.126-10.088,3.103c-12.565-13.41-30.425-21.78-50.25-21.78
				c-38.027,0-68.841,30.805-68.841,68.803c0,5.362,0.617,10.581,1.784,15.592c-5.314-0.218-86.237-4.755-141.289-71.423
				c0,0-32.902,44.917,19.607,91.105c0,0-15.962-0.636-29.733-8.864c0,0-5.058,54.416,54.407,68.329c0,0-11.701,4.432-30.368,1.272
				c0,0,10.439,43.968,63.271,48.077c0,0-41.777,37.74-101.081,28.885L60.377,337.822z"/>
		</g>
	</symbol>
	<symbol id="phone_header" viewBox="0 0 28 28">
		<g id="ic_fluent_phone_28_regular" fill-rule="nonzero">
            <path d="M7.92072596,2.64472005 L9.58060919,2.14438844 C11.1435675,1.67327249 12.8134781,2.43464008 13.4828053,3.92352899 L14.5160823,6.22200834 C15.0865915,7.491081 14.7859439,8.98254111 13.7683291,9.93148073 L11.9633958,11.6146057 C11.9410906,11.6354021 11.9227774,11.6601187 11.9093651,11.6875342 C11.720585,12.0734103 12.0066606,13.1043886 12.9061418,14.6623357 C13.9199541,16.4183102 14.7035571,17.1131712 15.0654726,17.005305 L17.4348517,16.2809111 C18.765101,15.8742119 20.2066891,16.3591908 21.0206203,17.4872349 L22.4880851,19.5210248 C23.440761,20.8413581 23.2694403,22.6628821 22.0872853,23.782427 L20.8252038,24.9776653 C19.9337363,25.8219337 18.6854328,26.1763171 17.4833291,25.9264007 C13.966189,25.1951903 10.8150019,22.3628582 8.00336279,17.4929565 C5.18895293,12.6182556 4.31270988,8.46966127 5.44310245,5.05625686 C5.82703045,3.89692852 6.75144427,2.9971717 7.92072596,2.64472005 Z M8.35362603,4.08089467 C7.65205693,4.29236569 7.09740832,4.83222008 6.86705161,5.52781682 C5.89305385,8.46896164 6.6820141,12.2043134 9.30240089,16.7429565 C11.9202871,21.2772684 14.7578382,23.8276999 17.7886493,24.4578029 C18.5099109,24.6077526 19.2588899,24.3951235 19.7937719,23.888561 L21.0558584,22.6933179 C21.6924034,22.0904861 21.784653,21.1096654 21.2716737,20.3987168 L19.8042088,18.3649269 C19.3659382,17.7575185 18.5896985,17.496376 17.8734103,17.7153679 L15.4990066,18.4412788 C14.1848357,18.833027 12.9496858,17.7377562 11.6071037,15.4123357 C10.4705242,13.4437223 10.075962,12.0217729 10.5619671,11.0283539 C10.6558865,10.8363778 10.7841758,10.6632305 10.9404443,10.5175321 L12.7453325,8.83444937 C13.2932789,8.32348189 13.455166,7.52038798 13.1479688,6.83704116 L12.1146918,4.53856182 C11.7542848,3.7368524 10.8551022,3.32688524 10.0135093,3.58056306 L8.35362603,4.08089467 Z" id="🎨-Color"></path>
        </g>
	</symbol>
	<symbol id="OkSvg" viewBox="0 0 512 512">
		<rect width="512" height="512"/>
		<path d="M256 137a36.5 36.5 0 0136.5 36.5a36.5 36.5 0 01-36.5 36.5a36.5 36.5 0 01-36.5-36.5a36.5 36.5 0 0136.5-36.5zm0 124.5c48.6 0 88-39.5 88 -88s-39.5-88 -88 -88s-88 39.5-88 88s39.5 88 88 88m35.6 71.9a164.8 164.8 0 0051-21a25.8 25.8 0 008-35.6a25.8 25.8 0 00-35.6-8a111.9 111.9 0 01-118.6 0a25.8 25.8 0 00-35.6 8a25.8 25.8 0 008 35.6c15.9 10 33 17 51 21l-49 49.3a25.8 25.8 0 0036.5 36.5l48.4-48.5l48.4 48.4a25.8 25.8 0 0036.5 0a25.8 25.8 0 000-36.5l-49.3-49.3" fill="#fff"/>
	</symbol>
	<symbol id="logo_icon" viewBox="0 0 5644 1752">
		 <path data-name="Color Fill 1" d="M302 731h2c.688-3.774 2.767-5.354 4-8v-3l2-1v-3l2-1v-3l2-1v-3h1v-2h1v-2h1v-2h1v-2h1v-2h1v-2h1l1-5 2-1v-3l2-1v-3h1v-2h1v-2h1v-2h1v-2h1v-2h1v-2h1v-2h1v-3l2-1v-3l2-1v-3l2-1v-3h1v-2h1v-2h1v-2h1v-2h1v-2h1v-2h1v-2h1v-3l2-1v-3l2-1v-3l2-1v-3h1v-2h1v-2h1l2-6h1v-3l2-1v-3l2-1v-3l2-1v-3h1v-2h1v-2h1v-2h1v-2h1v-2h1v-2h1v-2h1v-3l2-1v-3l2-1v-3l2-1v-3h1l1-4h1v-2h1v-2h1v-2h1v-2h1v-2h1v-3l2-1v-3l2-1v-3h1l1-4h1v-2h1v-2h1v-2h1v-2h1v-2h1v-3l2-1v-3l2-1v-3l2-1v-3h1l1-4h1v-2h1v-2h1v-2h1v-2h1v-2h1v-3l2-1v-3l2-1v-3h1l1-4h1v-2h1v-2h1v-2h1v-2h1v-2h1v-3l2-1v-3l2-1v-3l2-1v-3h1l1-4h1v-2h1v-2h1v-2h1v-2h1v-2h1v-3l2-1v-3l2-1v-3h1v-2h1v-2h1v-2h1v-2h1v-2h1v-2h1v-2h1v-2h1v-2h1v-3l2-1v-3l2-1v-3h1l1-4h1v-2h1v-2h1v-2h1v-2h1v-2h1v-3l2-1v-3l2-1v-3l2-1v-3h1l1-4h1v-2h1v-2h1v-2h1v-2h1v-2h1v-3l2-1v-3l2-1v-3h1l1-4h1v-2h1v-2h1v-2h1v-2h1v-2h1v-3l2-1v-3l2-1v-3l2-1v-2l10-11h2v-1l3-1 1-2h3v-1c3.825-1.513 15.211-1.648 19 0v1l4 1v1h2l4 5 5 4 1 4 2 1v3h1v2h1l1 5h1v5h1l1 20c1.7 6.092 1 16.265 1 24v797h-1v14h-1v3h-1v5h-1v2h-1v3c-.667.33-1.333.67-2 1l-1 4h-1a8.254 8.254 0 0 0-2 4c-2.613.72-3.214 1.58-5 3v1h-2v1c-1.333.33-2.667.67-4 1v1h-2v1h-5v1h-5v1c-3.2.86-8.078-1.35-10-2h-4c-.333-.67-.667-1.33-1-2h-3c-.333-.67-.667-1.33-1-2h-2c-.333-.67-.667-1.33-1-2h-2l-5-6c-.667-.33-1.333-.67-2-1v-2c-.667-.33-1.333-.67-2-1l-1-3h-1v-3h-1v-2h-1v-4h-1v-3h-1l-1-42V540h1v-8h-2c-.683 3.113-2.869 4.584-4 7v3l-2 1v3l-2 1v3h-1v2h-1v2h-1v2h-1v2h-1v2h-1v2h-1v2h-1v3l-2 1v3l-2 1v3h-1v2h-1v2h-1v2h-1v2h-1v2h-1v2h-1v2h-1v3l-2 1v3l-2 1v3h-1v2h-1v2h-1v2h-1v2h-1v2h-1v2h-1v2h-1v3l-2 1v3l-2 1v3h-1v2h-1v2h-1v2h-1v2h-1v2h-1v2h-1v2h-1v3l-2 1v3l-2 1v3h-1v2h-1v2h-1v2h-1v2h-1v2h-1v2h-1v2h-1v3l-2 1v3l-2 1v3l-2 1v3h-1v2h-1v2h-1l-2 6h-1v3l-2 1v3l-2 1v3l-2 1v3h-1l-1 4h-1v2h-1v2h-1v2h-1v2h-1v2h-1v3l-2 1v3l-2 1v3h-1l-1 4h-1v2h-1v2h-1v2h-1v2h-1v2h-1v3l-2 1v3l-2 1v3h-1l-1 4h-1v2h-1v2h-1v2h-1v2h-1v2h-1v3l-2 1v3l-2 1v3h-1l-1 4h-1v2h-1v2h-1v2h-1v2h-1v2h-1v3l-2 1v3l-2 1v3h-1l-1 4h-1v2h-1v2h-1v2h-1v2h-1v2h-1v3l-2 1v3l-2 1v3l-2 1v3h-1v2h-1v2h-1l-2 6h-1v3l-2 1v3l-2 1-2 6-2 1v2l-3 2v2l-2 1-4 5h-2l-1 2-4 1v1h-3c-1.805.71-4.4 3.1-8 2v-1h-3v-1h-3v-1h-2v-1h-2v-1c-1.8-1.428-2.388-2.26-5-3v-2h-2v-2c-4.58-2.878-5.127-6.657-8-11l-2-1v-2h-1l-1-4-2-1v-3l-2-1v-3h-1v-2h-1l-1-4h-1v-2h-1v-2h-1v-2h-1v-2h-1v-2h-1l-1-5-2-1v-3l-2-1v-3l-2-1v-3h-1l-1-4h-1v-2h-1v-2h-1v-2h-1v-2h-1v-2h-1v-3l-2-1v-3l-2-1v-3l-2-1-1-5h-1l-1-4h-1v-2h-1v-2h-1v-2h-1v-2h-1v-2h-1v-2h-1v-3l-2-1v-3l-2-1v-3l-2-1v-3h-1l-1-4h-1v-2h-1v-2h-1v-2h-1v-2h-1v-2h-1v-3l-2-1v-3l-2-1v-3l-2-1v-3h-1v-2h-1v-2h-1v-2h-1v-2h-1v-2h-1v-2h-1v-2h-1v-2h-1v-2h-1v-3l-2-1v-3l-2-1v-3l-2-1v-3h-1l-1-4h-1v-2h-1v-2h-1v-2h-1v-2h-1v-2h-1v-3l-2-1v-3l-2-1v-3l-2-1v-3h-1v-2h-1v-2h-1v-2h-1v-2h-1v-2h-1v-2h-1v-2h-1v-2h-1v-2h-1v-3l-2-1v-3l-2-1v-3l-2-1v-3h-1l-1-4h-1v-2h-1v-2h-1v-2h-1v-2h-1v-2h-1v-3l-2-1v-3l-2-1v-3l-2-1v-3h-1v-2h-1l-1-4h-1v-2h-1v-2h-1v-2h-1v-2h-1v-2h-1l-3-9-2-1v-3l-2-1v-3h-1v-2h-1v-2h-1v-2h-1v-2h-1v-2h-1v-2h-1v-2h-1v-3l-2-1v-3h-1l-1-4h-2v626c0 13.24 1.174 29.85-2 40v5h-1v2h-1v3h-1l-1 4h-1l-1 4c-1 .67-2 1.33-3 2l-5 6h-2v1c-2 .67-4 1.33-6 2v1h-4c-1.688.55-8.31 2.74-11 2v-1c-3-.33-6-.67-9-1v-1h-2v-1h-3c-.333-.67-.667-1.33-1-2h-2c-.333-.67-.667-1.33-1-2h-2c-1-1.33-2-2.67-3-4-1-.67-2-1.33-3-2v-2c-.667-.33-1.333-.67-2-1-8.133-12.86-6-37.25-6-58V391c0-12.19-1.9-30.886 1-41v-7h1v-3h1v-4h1v-2h1v-3l2-1 1-4 2-1v-2l3-2v-2h1l2-3h2l1-2 3-1v-1c2.449-1.312 13.366-3.459 18-2v1h3v1h3l1 2h2l2 3h2v1l2 1v2l4 3 1 3 2 1 1 4 2 1 1 3h1l1 4h1l1 4h1v3l2 1v3l2 1v3l2 1v3h1l1 4h1v2h1v2h1v2h1v2h1v2h1v3l2 1v3l2 1v3l2 1v3h1v2h1v2h1v2h1v2h1v2h1v2h1v2h1v2h1v2h1v3l2 1v3l2 1v3l2 1v3h1l1 4h1v2h1v2h1v2h1v2h1v2h1v3l2 1v3l2 1v3l2 1v3h1l1 4h1v2h1v2h1v2h1v2h1v2h1v3l2 1v3l2 1v3l2 1v3h1v2h1l1 4h1v2h1v2h1v2h1v2h1v2h1l1 5 2 1v3l2 1v3h1v2h1v2h1v2h1v2h1v2h1v2h1v2h1v2h1v2h1v3l2 1v3l2 1v3l2 1v3h1l1 4h1v2h1v2h1v2h1v2h1v2h1v3l2 1v3l2 1v3l2 1v3h1v2h1v2h1v2h1v2h1v2h1v2h1v2h1v2h1v2h1v3l2 1v3l2 1v3h1v2h1v2h1v2h1v2h1v2h1v2h1v2h1v2h1v2h1v3l2 1v3l2 1v3l2 1v3h1l1 4h1v2h1v2h1v2h1v2h1v2h1v3l2 1v3l2 1v3l2 1v3h1v2h1v2h1v2h1v2h1v2h1v2h1v2h1v2h1v2h1v3l2 1v3l2 1v3h1v2h1v2h1v2h1v2h1v2h1v2h1v2h1v2h1v2h1v3l2 1v3l2 1v3l2 1v3h1a38.719 38.719 0 0 1 3 8Zm1062-420h394c8.29 0 19.39-.932 26 1h6v1h2v1h3c.33.667.67 1.333 1 2l4 1c.67 1 1.33 2 2 3h2v1c1.33 1 2.67 2 4 3v2c1.33 1 2.67 2 4 3v2c.67.333 1.33.667 2 1v3c.67.333 1.33.667 2 1v3h1v2h1v4h1v3h1v17h-1v3h-1v5h-1v2h-1v3c-.67.333-1.33.667-2 1v3h-1c-.33 1-.67 2-1 3-.67.333-1.33.667-2 1v2l-3 2v2c-.67.333-1.33.667-2 1v1h-2c-.67 1-1.33 2-2 3-11.74 7.739-37.03 5-56 5h-129c-2.03 5.584-1 15.731-1 23v766c-1.75 2.07-.9 7.21-2 10h-1v3h-1v2h-1v3c-.67.33-1.33.67-2 1v2c-.67.33-1.33.67-2 1v2c-.67.33-1.33.67-2 1-1 1.33-2 2.67-3 4h-2c-.33.67-.67 1.33-1 2-1 .33-2 .67-3 1v1c-3.63 1.94-21.81 6.3-29 4v-1c-2-.33-4-.67-6-1v-1h-2v-1h-3v-1c-1-.33-2-.67-3-1-.33-.67-.67-1.33-1-2h-2c-1.67-2-3.33-4-5-6-1-.67-2-1.33-3-2-.33-1.33-.67-2.67-1-4-.67-.33-1.33-.67-2-1-6.86-12.91-4-49.06-4-69V403c-4.34-1.581-12.08-1-18-1h-156v-1l-7-1c-.33-.667-.67-1.333-1-2h-3c-.33-.667-.67-1.333-1-2h-2c-.33-.667-.67-1.333-1-2h-2c-.33-.667-.67-1.333-1-2-1.33-1-2.67-2-4-3v-2c-.67-.333-1.33-.667-2-1v-3c-.67-.333-1.33-.667-2-1v-3h-1v-2h-1c-.33-2-.67-4-1-6h-1v-6h-1c-2.08-7.381 1.36-19.891 3-24v-3h1v-2h1v-3c.67-.333 1.33-.667 2-1 .33-1.333.67-2.667 1-4 .67-.333 1.33-.667 2-1v-2l6-5c.67-1 1.33-2 2-3h2v-1h2c.33-.667.67-1.333 1-2l6-1v-1h6v-1Zm1686 451h-2c-1.3 4.489-2.86 3.723-6 6q-3.495 4-7 8l-3 1c-.67 1-1.33 2-2 3h-2l-3 4h-2c-.33.667-.67 1.333-1 2l-3 1v1h-2c-.33.667-.67 1.333-1 2h-2c-.33.667-.67 1.333-1 2h-2c-.33.667-.67 1.333-1 2l-6 2c-.33.667-.67 1.333-1 2h-3c-.33.667-.67 1.333-1 2h-3c-.33.667-.67 1.333-1 2h-3c-.33.667-.67 1.333-1 2h-3v1h-2v1h-3c-.33.667-.67 1.333-1 2q-20.505 6.5-41 13c.33 1 .67 2 1 3h1v2h1v2c.67.333 1.33.667 2 1v3c.67.333 1.33.667 2 1v2h1v2h1v2h1v2h1v2h1v2h1v2c.67.333 1.33.667 2 1v3c.67.333 1.33.667 2 1v2h1v2h1v2h1v2h1v2c.67.333 1.33.667 2 1v3c.67.333 1.33.667 2 1v3c.67.333 1.33.667 2 1v2h1v2h1v2h1v2h1v2c.67.333 1.33.667 2 1v3c.67.333 1.33.667 2 1v2h1v2h1v2h1v2h1v2h1c.33 1.333.67 2.667 1 4 .67.333 1.33.667 2 1v3c.67.333 1.33.667 2 1v2h1v2h1v2h1v2h1v2c.67.333 1.33.667 2 1v3c.67.333 1.33.667 2 1v2h1v2h1v2h1v2h1v2h1c.33 1.333.67 2.667 1 4 .67.333 1.33.667 2 1v3c.67.333 1.33.667 2 1v2h1v2h1v2h1v2h1v2c.67.333 1.33.667 2 1v3c.67.333 1.33.667 2 1v2h1v2h1v2h1v2h1v2h1c.33 1.333.67 2.667 1 4 .67.333 1.33.667 2 1v3c.67.333 1.33.667 2 1v2h1v2h1v2h1v2h1v2c.67.333 1.33.667 2 1v3c.67.333 1.33.667 2 1v3c.67.333 1.33.667 2 1v2h1v2h1v2h1v2h1v2c.67.33 1.33.67 2 1v3c.67.33 1.33.67 2 1v2h1v2h1v2h1v2h1v2h1c.33 1.33.67 2.67 1 4 .67.33 1.33.67 2 1v3c.67.33 1.33.67 2 1v2h1v2h1v2h1v2h1v2c.67.33 1.33.67 2 1v3c.67.33 1.33.67 2 1v2h1v2h1v2h1v2h1v2h1c.33 1.33.67 2.67 1 4 .67.33 1.33.67 2 1v3c.67.33 1.33.67 2 1v2h1v2h1v2h1v2h1v2c.67.33 1.33.67 2 1v3c.67.33 1.33.67 2 1v3c.67.33 1.33.67 2 1v2h1v2h1v2h1v2h1v2c.67.33 1.33.67 2 1v3c.67.33 1.33.67 2 1v2h1v2h1v2h1v2h1v2h1c.33 1.33.67 2.67 1 4 .67.33 1.33.67 2 1v3c.67.33 1.33.67 2 1v2h1v2h1v2h1v2h1v2c.67.33 1.33.67 2 1v3c.67.33 1.33.67 2 1v2h1v2h1v2h1v2h1v2h1c.33 1.33.67 2.67 1 4 .67.33 1.33.67 2 1v3c.67.33 1.33.67 2 1v2h1v2h1v2h1v2h1v2c.67.33 1.33.67 2 1v3c.67.33 1.33.67 2 1v3h1v2h1v3h1v2h1v4h1v3h1v20h-1v3h-1v4c-.67.33-1.33.67-2 1v3c-.67.33-1.33.67-2 1v2c-.67.33-1.33.67-2 1v2c-1 .67-2 1.33-3 2-1.67 2-3.33 4-5 6h-2c-.33.67-.67 1.33-1 2h-2c-.33.67-.67 1.33-1 2-1 .33-2 .67-3 1v1h-2v1h-2v1h-3v1h-2v1c-2 .33-4 .67-6 1v1c-3.67 1.16-23.49-.11-26-1v-1h-3v-1h-2v-1h-3c-.33-.67-.67-1.33-1-2h-2c-.33-.67-.67-1.33-1-2h-2q-4.995-5.505-10-11v-2c-.67-.33-1.33-.67-2-1v-2c-.67-.33-1.33-.67-2-1v-2c-.67-.33-1.33-.67-2-1v-3c-.67-.33-1.33-.67-2-1v-3c-.67-.33-1.33-.67-2-1v-2h-1v-2h-1v-2h-1v-2h-1v-2c-.67-.33-1.33-.67-2-1v-3c-.67-.33-1.33-.67-2-1v-3c-.67-.33-1.33-.67-2-1v-2h-1v-2h-1v-2h-1v-2h-1v-2c-.67-.33-1.33-.67-2-1v-3c-.67-.33-1.33-.67-2-1v-3c-.67-.33-1.33-.67-2-1v-2h-1v-2h-1v-2h-1v-2h-1v-2h-1c-.33-1.33-.67-2.67-1-4-.67-.33-1.33-.67-2-1v-3c-.67-.33-1.33-.67-2-1v-2h-1v-2h-1v-2h-1v-2h-1v-2h-1c-.33-1.33-.67-2.67-1-4-.67-.33-1.33-.67-2-1v-3c-.67-.33-1.33-.67-2-1v-2h-1v-2h-1v-2h-1v-2h-1v-2h-1c-.33-1.33-.67-2.67-1-4-.67-.33-1.33-.67-2-1v-3c-.67-.33-1.33-.67-2-1v-2h-1v-2h-1v-2h-1v-2h-1v-2h-1c-.33-1.33-.67-2.67-1-4-.67-.33-1.33-.67-2-1v-3c-.67-.33-1.33-.67-2-1v-2h-1v-2h-1v-2h-1v-2h-1v-2h-1c-.33-1.33-.67-2.67-1-4-.67-.33-1.33-.67-2-1v-3c-.67-.33-1.33-.67-2-1v-3c-.67-.33-1.33-.67-2-1v-2h-1v-2h-1v-2h-1v-2h-1v-2c-.67-.33-1.33-.67-2-1v-3c-.67-.33-1.33-.67-2-1v-3c-.67-.33-1.33-.67-2-1v-2h-1v-2h-1v-2h-1v-2h-1v-2h-1c-.33-1.33-.67-2.67-1-4-.67-.33-1.33-.67-2-1v-3c-.67-.33-1.33-.67-2-1v-2h-1v-2h-1v-2h-1v-2h-1v-2c-.67-.33-1.33-.67-2-1v-3c-.67-.33-1.33-.67-2-1v-3c-.67-.33-1.33-.67-2-1v-2h-1v-2h-1v-2h-1v-2h-1v-2h-1c-.33-1.333-.67-2.667-1-4-.67-.333-1.33-.667-2-1v-3c-.67-.333-1.33-.667-2-1v-2h-1v-2h-1v-2h-1v-2h-1v-2h-1c-.33-1.333-.67-2.667-1-4-.67-.333-1.33-.667-2-1v-3c-.67-.333-1.33-.667-2-1v-2h-1v-2h-1v-2h-1v-2h-1v-2h-1c-.33-1.333-.67-2.667-1-4-.67-.333-1.33-.667-2-1v-3c-.67-.333-1.33-.667-2-1v-3c-.67-.333-1.33-.667-2-1v-2h-1v-2h-1v-2h-1v-2h-1v-2c-.67-.333-1.33-.667-2-1v-3c-.67-.333-1.33-.667-2-1v-3c-.67-.333-1.33-.667-2-1v-2h-1v-2h-1v-2h-1v-2h-1v-2c-.67-.333-1.33-.667-2-1v-3c-.67-.333-1.33-.667-2-1v-3c-.67-.333-1.33-.667-2-1v-2h-1v-2h-1v-2h-1v-2h-1v-2c-.67-.333-1.33-.667-2-1v-3c-.67-.333-1.33-.667-2-1v-3c-.67-.333-1.33-.667-2-1v-2h-1v-2h-1v-2h-1v-2h-1v-2h-1c-.33-1.333-.67-2.667-1-4-.67-.333-1.33-.667-2-1v-3c-.67-.333-1.33-.667-2-1v-2h-1v-2h-1v-2h-1v-2h-1v-2h-1c-.33-1.333-.67-2.667-1-4-.67-.333-1.33-.667-2-1v-3c-.67-.333-1.33-.667-2-1-.33-1.333-.67-2.667-1-4h-1v-2h-1v-2h-1v-2h-1v-2h-1v-2h-1v-1h-1v-1h-23c-1.83-1.591-6.63-1-10-1h-124v3h-1c.33 1 .67 2 1 3v317c0 27.7 1.59 50.65-10 67-.67.33-1.33.67-2 1-1 1.33-2 2.67-3 4h-2c-.33.67-.67 1.33-1 2h-2c-.33.67-.67 1.33-1 2h-3v1h-2v1h-4v1h-3v1h-20v-1c-2.33-.33-4.67-.67-7-1v-1c-2-.67-4-1.33-6-2v-1h-2c-.33-.67-.67-1.33-1-2h-2c-1.33-1.67-2.67-3.33-4-5-1.67-1.33-3.33-2.67-5-4-8.2-12.11-7-32.52-7-53V356h1v-4h1v-4h1v-2h1v-3c.67-.333 1.33-.667 2-1v-3h1c.33-1 .67-2 1-3 .67-.333 1.33-.667 2-1v-2c.67-.333 1.33-.667 2-1v-2c.67-.333 1.33-.667 2-1v-1h2c.33-.667.67-1.333 1-2l3-1v-1h2c.33-.667.67-1.333 1-2h3v-1h2v-1h4v-1h4v-1h235c9.79 0 22.95-1.277 31 1h18c1.39.233-.36.615 1 1h16v1h7v1h10v1l12 1v1h4v1h6v1h3v1h5v1h3v1h4v1h2v1h4v1h2v1h4v1l5 1v1h2v1h3c.33.667.67 1.333 1 2h3c.33.667.67 1.333 1 2h3c.33.667.67 1.333 1 2l6 2v1l3 1c.33.667.67 1.333 1 2h2c.33.667.67 1.333 1 2h2c.67 1 1.33 2 2 3h2c1.33 1.666 2.67 3.334 4 5h2c1.33 1.666 2.67 3.334 4 5l9 8v2l6 5v2c.67.333 1.33.667 2 1v2c1.33 1 2.67 2 4 3v2c.67.333 1.33.667 2 1v2c.67.333 1.33.667 2 1 .33 1 .67 2 1 3h1c.67 2 1.33 4 2 6 .67.333 1.33.667 2 1 .67 2 1.33 4 2 6 .67.333 1.33.667 2 1v3c.67.333 1.33.667 2 1v2h1v2h1v3c.67.333 1.33.667 2 1v3h1v2h1c.33 1.333.67 2.667 1 4h1v3h1v2h1v3h1v2h1c.67 3 1.33 6 2 9h1v2h1q1.005 5 2 10h1v2h1v4h1v3h1v5h1v3h1v5h1v3h1v6h1v4h1v6h1v5h1v8h1v6h1v12c3.02 10.878 2 26.365 2 40 0 6.843.48 15.764-1 21v10h-1v12h-1v5h-1v9h-1c-.33 3.333-.67 6.667-1 10h-1v4h-1v6h-1v3h-1v5h-1v2h-1v5h-1v2h-1v4h-1v3h-1v3h-1c-.33 2-.67 4-1 6h-1v2h-1v3h-1v2h-1v3h-1v2h-1v3h-1c-.67 2-1.33 4-2 6h-1v2h-1v2h-1v2h-1v2h-1v2h-1v2h-1v2c-.67.333-1.33.667-2 1-.67 2-1.33 4-2 6h-1c-.33 1-.67 2-1 3-.67.333-1.33.667-2 1-.33 1.333-.67 2.667-1 4-.67.333-1.33.667-2 1v2c-.67.333-1.33.667-2 1v2l-3 2v2c-.67.333-1.33.667-2 1v2c-1.33 1-2.67 2-4 3v2c-.67.333-1.33.667-2 1-2.2 2.324-5.02 4.543-6 8ZM894 322h220v1h6v1h7v1h4v1h5v1h3v1h5v1h2v1h4v1h2v1h3v1l5 1v1h2v1h3c.33.667.67 1.333 1 2h3c.33.667.67 1.333 1 2h3c.33.667.67 1.333 1 2l6 2c.33.667.67 1.333 1 2h2c.33.667.67 1.333 1 2h2c.33.667.67 1.333 1 2h2v1l3 1c.33.667.67 1.333 1 2h2c.33.667.67 1.333 1 2h1c.33.667.67 1.333 1 2h2l3 4h2l9 10q4.995 4.5 10 9v2l6 5v2c.67.333 1.33.667 2 1v2c1.33 1 2.67 2 4 3v2c.67.333 1.33.667 2 1v2c.67.333 1.33.667 2 1 .33 1 .67 2 1 3h1v2h1v2c.67.333 1.33.667 2 1v2h1v2h1v2h1v2c.67.333 1.33.667 2 1v3c.67.333 1.33.667 2 1v3h1v2h1c.33 1.333.67 2.667 1 4h1v3h1v2h1v4h1v2h1v4h1v2h1v4h1v3h1v6h1v3h1v7h1v5h1v12h1v550c0 10.09 1.35 23.66-1 32v12h-1v5h-1v6h-1v4h-1v5h-1v3h-1v4h-1v3h-1v4h-1c-.33 1.67-.67 3.33-1 5h-1v2h-1v3h-1v2h-1v3h-1c-.67 2-1.33 4-2 6h-1v2h-1c-.33 1.33-.67 2.67-1 4-.67.33-1.33.67-2 1-.67 2-1.33 4-2 6-.67.33-1.33.67-2 1v2c-.67.33-1.33.67-2 1v2c-.67.33-1.33.67-2 1v2c-.67.33-1.33.67-2 1v2c-.67.33-1.33.67-2 1v2c-.67.33-1.33.67-2 1v1c-.67.33-1.33.67-2 1v2c-1.33 1-2.67 2-4 3v2q-4.995 4.5-10 9-6 6.495-12 13h-2c-1.33 1.67-2.67 3.33-4 5-1 .33-2 .67-3 1-.33.67-.67 1.33-1 2h-2c-.33.67-.67 1.33-1 2-1 .33-2 .67-3 1v1h-2c-.33.67-.67 1.33-1 2h-2c-.33.67-.67 1.33-1 2h-2c-.33.67-.67 1.33-1 2-2 .67-4 1.33-6 2-.33.67-.67 1.33-1 2h-3c-.33.67-.67 1.33-1 2h-3c-.33.67-.67 1.33-1 2h-3v1h-2v1h-3v1h-2v1h-3v1h-2v1h-4v1h-3v1c-2.33.33-4.67.67-7 1v1h-5c-12.9 4.08-28.66 4-46 4H896v-1h-6v-1h-8v-1h-3v-1h-6v-1h-3v-1h-4v-1h-2v-1h-4v-1h-2v-1c-3-.67-6-1.33-9-2-.333-.67-.667-1.33-1-2h-3v-1h-2v-1h-2v-1h-2v-1h-2v-1c-1.333-.33-2.667-.67-4-1-.333-.67-.667-1.33-1-2-2-.67-4-1.33-6-2v-1c-1-.33-2-.67-3-1-.333-.67-.667-1.33-1-2h-2c-.333-.67-.667-1.33-1-2h-2l-2-3h-2l-2-3h-2l-5-6h-2q-5-5.505-10-11l-10-9v-2l-4-3v-2l-4-3v-2c-.667-.33-1.333-.67-2-1v-2c-1-.67-2-1.33-3-2v-2c-.667-.33-1.333-.67-2-1l-1-4c-.667-.33-1.333-.67-2-1l-1-3h-1v-2h-1v-2h-1v-2h-1v-2h-1v-2h-1l-2-6h-1v-3c-.667-.33-1.333-.67-2-1v-4h-1v-2h-1l-1-5h-1v-4h-1v-2h-1v-5h-1v-3h-1v-5c-8.419-26.5-5-69.94-5-104V559c0-36.792-2.7-78.587 7-106v-4h1v-3h1v-4h1l1-5h1v-2h1v-3h1v-2h1v-3l2-1v-3h1l1-4h1l1-4 2-1 2-6 2-1v-2l2-1v-2l2-1v-2l2-1v-2l2-1v-2l2-1v-1l2-1v-2l4-3v-2l13-12 8-9h2l3-4h2l3-4h2l1-2 3-1v-1h2l1-2h2l1-2 3-1v-1l6-2 1-2h3l1-2h3l1-2h3v-1h2v-1h3v-1h2v-1h3v-1h2v-1h4v-1h3v-1l7-1v-1h5v-1h4v-1c4.323-1.313 10.116.563 13-2Zm1190 0h159c25.86 0 56.99-2.365 77 4h5l24 8v1l4 1v1h2v1h3c.33.667.67 1.333 1 2l6 2c.33.667.67 1.333 1 2l6 2v1l3 1c.33.667.67 1.333 1 2h2c.67 1 1.33 2 2 3h2c.67 1 1.33 2 2 3h2l3 4h2c1.67 2 3.33 4 5 6h2q3.495 4 7 8l3 2v2q3.495 3 7 6v2c1.67 1.333 3.33 2.667 5 4v2c.67.333 1.33.667 2 1v2l3 2v2c.67.333 1.33.667 2 1 .33 1 .67 2 1 3h1c.33 1.333.67 2.667 1 4 .67.333 1.33.667 2 1 .33 1 .67 2 1 3h1c.67 2 1.33 4 2 6 .67.333 1.33.667 2 1v3h1v2h1c.33 1.333.67 2.667 1 4h1v3c.67.333 1.33.667 2 1v3h1v2h1v4h1v2h1v4c10.76 27.368 10 64.525 10 103v425c0 45.26 4.11 98.85-8 133v4h-1v3h-1v4h-1c-.33 1.67-.67 3.33-1 5h-1v2h-1v3h-1v2h-1v3c-.67.33-1.33.67-2 1v3c-.67.33-1.33.67-2 1v3c-.67.33-1.33.67-2 1-.67 2-1.33 4-2 6-.67.33-1.33.67-2 1-.67 2-1.33 4-2 6h-1c-.33 1-.67 2-1 3-.67.33-1.33.67-2 1v2c-1 .67-2 1.33-3 2v2c-1 .67-2 1.33-3 2v2c-1.33 1-2.67 2-4 3v2c-2 1.67-4 3.33-6 5v2q-4.995 4.5-10 9c-1.33 1.67-2.67 3.33-4 5h-2c-1.33 1.67-2.67 3.33-4 5h-2c-1 1.33-2 2.67-3 4h-2c-.33.67-.67 1.33-1 2h-1c-.33.67-.67 1.33-1 2h-2c-.33.67-.67 1.33-1 2-1 .33-2 .67-3 1v1h-2c-.33.67-.67 1.33-1 2-2 .67-4 1.33-6 2-.33.67-.67 1.33-1 2-2 .67-4 1.33-6 2-.33.67-.67 1.33-1 2h-3v1h-2v1c-1.33.33-2.67.67-4 1v1c-3 .67-6 1.33-9 2v1h-2v1c-3.33.67-6.67 1.33-10 2v1h-3v1h-6c-12.56 4.06-27.91 4-45 4h-187v-1h-6v-1h-8v-1h-3v-1h-6v-1h-3v-1c-3.33-.67-6.67-1.33-10-2v-1h-2v-1c-3-.67-6-1.33-9-2-.33-.67-.67-1.33-1-2h-3v-1h-2v-1h-2v-1h-2v-1h-2v-1c-1.33-.33-2.67-.67-4-1-.33-.67-.67-1.33-1-2-2-.67-4-1.33-6-2-.33-.67-.67-1.33-1-2h-2v-1c-1-.33-2-.67-3-1-.33-.67-.67-1.33-1-2h-2c-1-1.33-2-2.67-3-4h-2c-.67-1-1.33-2-2-3h-2c-1.33-1.67-2.67-3.33-4-5h-2q-4.005-4.5-8-9-4.995-4.5-10-9v-2c-2-1.67-4-3.33-6-5v-2c-1-.67-2-1.33-3-2v-2c-1-.67-2-1.33-3-2v-2c-.67-.33-1.33-.67-2-1-.33-1-.67-2-1-3h-1v-2c-.67-.33-1.33-.67-2-1-.33-1-.67-2-1-3h-1c-.67-2-1.33-4-2-6-.67-.33-1.33-.67-2-1v-3c-.67-.33-1.33-.67-2-1v-3c-.67-.33-1.33-.67-2-1v-3h-1v-2h-1c-.33-1.33-.67-2.67-1-4h-1v-3h-1v-2h-1v-4h-1v-2h-1v-4h-1v-2h-1v-5h-1v-3h-1v-6c-8.22-25.32-5-70.04-5-103V519c0-7.436-.63-17.2 1-23v-16h1v-6h1v-7h1c.33-3 .67-6 1-9h1v-3h1v-5h1v-2h1q1.005-5 2-10h1c.33-1.666.67-3.334 1-5h1v-2h1v-3h1c.33-1.333.67-2.667 1-4h1v-2h1v-3c.67-.333 1.33-.667 2-1 .67-2 1.33-4 2-6 .67-.333 1.33-.667 2-1 .67-2 1.33-4 2-6 .67-.333 1.33-.667 2-1v-2h1c.33-1 .67-2 1-3 .67-.333 1.33-.667 2-1v-2c1.33-1 2.67-2 4-3v-2c.67-.333 1.33-.667 2-1v-2l6-5v-2q4.995-4.5 10-9l9-10h2l3-4h2l3-4h2c.33-.667.67-1.333 1-2l3-1v-1h2c.33-.667.67-1.333 1-2h2c.33-.667.67-1.333 1-2l3-1v-1l6-2c.33-.667.67-1.333 1-2h3c.33-.667.67-1.333 1-2h3c.33-.667.67-1.333 1-2h3v-1h2v-1h3v-1h2v-1l5-1v-1h4v-1h2v-1h5v-1h3v-1h5v-1c4.45-1.452 14.06-.392 17-3ZM852 1122c2.591.68 3.261 1.57 5 3v1c1 .33 2 .67 3 1 .333.67.667 1.33 1 2h2l2 3h2c.333.67.667 1.33 1 2 1 .33 2 .67 3 1v1c2 .67 4 1.33 6 2 .333.67.667 1.33 1 2h2v1c2.333.33 4.667.67 7 1v1h2v1h5c13.024 4.16 32.715 3 50 3h160v-1h8v-1h3v-1h5v-1h2v-1h3v-1c1.67-.33 3.33-.67 5-1v-1c1.33-.33 2.67-.67 4-1v-1c1.33-.33 2.67-.67 4-1 .33-.67.67-1.33 1-2h2c.33-.67.67-1.33 1-2h2c.67-1 1.33-2 2-3h2v-1c2.56-2.15 4.38-4.99 8-6 .96-3.61 3.87-5.46 6-8h1v-2c1-.67 2-1.33 3-2v-2c.67-.33 1.33-.67 2-1 .67-2 1.33-4 2-6 .67-.33 1.33-.67 2-1v-3c.67-.33 1.33-.67 2-1v-3h1v-2h1v-4h1v-2h1v-5h1v-4h1v-8c2.76-9.73 1-25.45 1-37V526c0-15.861.92-33.265-3-45v-5q-4.005-9.5-8-19c-.67-.333-1.33-.667-2-1-.33-1.333-.67-2.667-1-4-.67-.333-1.33-.667-2-1v-2c-.67-.333-1.33-.667-2-1-.33-1-.67-2-1-3-1.33-1-2.67-2-4-3v-2c-1.67-1.333-3.33-2.667-5-4-.33-.667-.67-1.333-1-2h-2l-3-4h-2c-.67-1-1.33-2-2-3h-2c-.33-.667-.67-1.333-1-2l-4-1c-.33-.667-.67-1.333-1-2h-3c-.33-.667-.67-1.333-1-2h-3v-1h-2v-1h-3v-1h-2v-1h-5v-1h-3v-1l-18-1c-5.81-1.618-15.56-1-23-1H942c-13.308 0-28.43-1.024-39 2h-7v1h-4v1h-4v1h-2v1h-4v1l-6 2v1h-2v1l-4 1-1 2h-2v1l-3 1-1 2h-2l-3 4h-2l-1 2-5 4v2l-5 4-1 3-2 1-1 4-2 1-1 4h-1l-2 6h-1v3h-1v2h-1v4h-1v2h-1v5h-1v4h-1v8c-2.932 10.409-1 32.232-1 45v493c0 11.25-1.684 26.55 1 36v8h1v4h1v5h1v2h1v4h1v2h1v3c.667.33 1.333.67 2 1v3h1v2h1v2c.667.33 1.333.67 2 1l1 4c1 .67 2 1.33 3 2v2c.667.33 1.333.67 2 1v2h1c1.914 2.3 4.082 3.71 5 7Zm1251-710c-2.45 2.094-7.25-.066-11 1v1h-7v1l-7 1v1h-3v1h-3v1h-2v1h-3c-.33.667-.67 1.333-1 2h-3v1l-3 1c-.33.667-.67 1.333-1 2h-2v1l-3 1c-.33.667-.67 1.333-1 2h-2l-3 4h-2c-.33.667-.67 1.333-1 2-1.67 1.333-3.33 2.667-5 4v2c-1.67 1.333-3.33 2.667-5 4v2l-3 2v2c-.67.333-1.33.667-2 1-.33 1.333-.67 2.667-1 4h-1v2h-1c-.67 2-1.33 4-2 6h-1c-10.37 23.343-7 62.95-7 96v483q.495 15.495 1 31h1v4h1v5h1v2h1v4h1v2h1v3c.67.33 1.33.67 2 1v3h1v2h1v2c.67.33 1.33.67 2 1 .33 1.33.67 2.67 1 4 .67.33 1.33.67 2 1v2c1 .67 2 1.33 3 2v2c1.33 1 2.67 2 4 3v2c.67.33 1.33.67 2 1v1h2c1 1.33 2 2.67 3 4h2c1 1.33 2 2.67 3 4h2c.33.67.67 1.33 1 2 1 .33 2 .67 3 1v1h2c.33.67.67 1.33 1 2 2 .67 4 1.33 6 2 .33.67.67 1.33 1 2 1.33.33 2.67.67 4 1v1h4v1h3v1c2.67.33 5.33.67 8 1v1h8c7.78 2.18 20.5 1 30 1h146c12.96 0 23.56.17 33-3h5v-1h2v-1h3v-1h2v-1h3c.33-.67.67-1.33 1-2h3c.33-.67.67-1.33 1-2 2-.67 4-1.33 6-2 .67-1 1.33-2 2-3h2c.67-1 1.33-2 2-3h2c1-1.33 2-2.67 3-4q4.5-4.005 9-8v-2c1.33-1 2.67-2 4-3v-2c.67-.33 1.33-.67 2-1v-2c.67-.33 1.33-.67 2-1 .33-1.33.67-2.67 1-4h1c.33-1.33.67-2.67 1-4h1v-3h1v-2h1v-3h1v-2h1v-5h1v-3h1v-6c2.54-8.7 2-21.53 2-33V528c0-18.119.62-36.918-4-50q-1.005-5-2-10h-1v-2h-1v-3c-.67-.333-1.33-.667-2-1v-3c-.67-.333-1.33-.667-2-1-.33-1.333-.67-2.667-1-4h-1c-.33-1-.67-2-1-3-.67-.333-1.33-.667-2-1v-2l-3-2c-11.59-16.337-26.78-25.281-48-32l-18-1c-10.87-3.039-33.71-1-47-1h-134Zm576 9v272c0 10.68-.88 25.5 0 33 4.84 1.76 13.54 1 20 1h181c3.64-3.09 12.69.523 18-1v-1h6v-1h9v-1h4v-1h6v-1h3v-1h5v-1h3v-1h4v-1h2v-1l9-2c.33-.667.67-1.333 1-2h3v-1h2v-1h2c.33-.667.67-1.333 1-2h3v-1l3-1c.33-.667.67-1.333 1-2h2v-1l3-1c.33-.667.67-1.333 1-2h2l3-4h2q3.495-4 7-8l3-2v-2c1.33-1 2.67-2 4-3v-2l3-2v-2c.67-.333 1.33-.667 2-1 .33-1.333.67-2.667 1-4 .67-.333 1.33-.667 2-1 .33-1 .67-2 1-3h1c.33-1.333.67-2.667 1-4h1v-2h1c.67-2 1.33-4 2-6h1v-3h1v-2h1v-3h1v-2h1c.67-3 1.33-6 2-9h1v-2h1v-4h1v-3h1c.33-2.333.67-4.667 1-7h1v-6h1c.33-2 .67-4 1-6a63.662 63.662 0 0 1 2-12v-18h1c1.08-3.886-.6-9.571-1-12v-19h-1v-6h-1v-8h-1v-4h-1v-6h-1c-.33-2.333-.67-4.667-1-7h-1v-3h-1v-4h-1v-2h-1c-.67-3-1.33-6-2-9-.67-.333-1.33-.667-2-1v-3h-1v-2h-1v-3c-.67-.333-1.33-.667-2-1-.67-2-1.33-4-2-6-.67-.333-1.33-.667-2-1v-2h-1v-2h-1v-2c-.67-.333-1.33-.667-2-1v-2c-.67-.333-1.33-.667-2-1v-2c-1.33-1-2.67-2-4-3v-2c-1.33-1-2.67-2-4-3v-2q-3.495-3-7-6c-.33-.667-.67-1.333-1-2h-2l-3-4h-2c-.67-1-1.33-2-2-3h-2c-.67-1-1.33-2-2-3l-6-2c-.33-.667-.67-1.333-1-2h-3c-.33-.667-.67-1.333-1-2h-3v-1l-6-2v-1h-4v-1h-2v-1h-4v-1h-2v-1h-5v-1h-4v-1h-6v-1h-5v-1h-11v-1h-18c-8.07-2.253-21.2-1-31-1h-135c-13.33 0-29.33-1.082-41 1Zm-1246 935c-.27 20.67 7.13 35.54 21 42 2.67.33 5.33.67 8 1 2.67.83 14.94 2.31 19 1v-1h3v-1h4v-1h2v-1h3c10.46-5.68 15.28-23.08 15-40 9.15-.18 23.34 2.23 30 5-.33 3.33-.67 6.67-1 10h-1v6h-1c-.33 2.33-.67 4.67-1 7h-1v2h-1v3h-1c-.67 2-1.33 4-2 6h-1v2h-1c-.33 1-.67 2-1 3-.67.33-1.33.67-2 1v2c-1.33 1-2.67 2-4 3v2h-1c-.67 1-1.33 2-2 3h-2c-.67 1-1.33 2-2 3h-2c-.33.67-.67 1.33-1 2h-2v1h-2v1h-3c-.33.67-.67 1.33-1 2h-4c-7.8 2.8-13.89 4-25 4-12.84 0-21.99-.71-31-4h-4c-20.2-9.56-36.29-29.9-36-60 1.13-.84.15.13 1-1 10.73-.16 18.68-2.88 30-3Zm-699 344h-2v2h-2v2h-2v2h-2q-3 3.495-6 7h-2l-2 3h-2c-1 1.33-2 2.67-3 4h-2c-.333.67-.667 1.33-1 2h-2c-.333.67-.667 1.33-1 2-2 .67-4 1.33-6 2-.333.67-.667 1.33-1 2-1.333.33-2.667.67-4 1v1c-1.333.33-2.667.67-4 1v1h-3v1h-2v1h-3v1h-2v1h-4v1h-2v1h-5v1h-3v1h-6v1h-5v1h-18c-14.949 0-25.586-1.92-36-6-3-.67-6-1.33-9-2v-1c-2-.67-4-1.33-6-2v-1h-2v-1h-2v-1c-2-.67-4-1.33-6-2v-1c-1-.33-2-.67-3-1-.333-.67-.667-1.33-1-2h-2c-.333-.67-.667-1.33-1-2h-2c-.333-.67-.667-1.33-1-2h-2l-2-3c-1-.33-2-.67-3-1-.333-.67-.667-1.33-1-2-2.457-2.32-6.659-7.07-10-8v-2c-6.313-3.68-9.95-10.92-14-17-.667-.33-1.333-.67-2-1v-2c-.667-.33-1.333-.67-2-1l-1-3h-1l-2-6h-1v-2h-1v-2h-1l-2-6h-1v-3h-1v-2h-1v-4h-1v-2h-1v-4h-1v-3h-1v-5h-1v-3h-1v-7h-1v-4h-1l-1-27h-1l1-22h1v-12h1v-5h1v-7h1v-3h1v-5h1l1-7h1v-3h1v-4h1l1-5h1v-2h1v-3c.667-.33 1.333-.67 2-1v-3h1l1-4h1l1-4c.667-.33 1.333-.67 2-1l2-6h1l1-3c.667-.33 1.333-.67 2-1v-2c1-.67 2-1.33 3-2v-2c1-.67 2-1.33 3-2v-2c.667-.33 1.333-.67 2-1 2.192-2.32 5.034-4.54 6-8h2v-2h2v-2h2c3.681-6.31 10.921-9.95 17-14 .333-.67.667-1.33 1-2h2c.333-.67.667-1.33 1-2h2c.333-.67.667-1.33 1-2h2c.333-.67.667-1.33 1-2h3c.333-.67.667-1.33 1-2h2v-1h2v-1h3c.333-.67.667-1.33 1-2 3-.67 6-1.33 9-2v-1h2v-1h4v-1h2v-1h5v-1h4v-1h8v-1h8v-1c6.5-1.82 19.559.74 24 2h8v1h3v1h6c27.191 9.82 50.531 24.47 66 46l4 3v2c.667.33 1.333.67 2 1l1 3h1v2c.667.33 1.333.67 2 1l2 6c.667.33 1.333.67 2 1l1 4h1l1 4h1v3h1v2h1l2 9h1v2h1v4h1v3h1v5h1v3h1v7h1v5h1v13h1c1.4 5.02.042 26.3-1 30v13h-1v5h-1v7h-1v4h-1v5h-1v3h-1v5h-1v2h-1v4h-1l-1 5h-1v2h-1v3h-1v2h-1v3c-.667.33-1.333.67-2 1v3c-.667.33-1.333.67-2 1v3c-.667.33-1.333.67-2 1l-1 4c-.667.33-1.333.67-2 1l-1 4c-1 .67-2 1.33-3 2v2c-1 .67-2 1.33-3 2v2c-1 .67-2 1.33-3 2v2h-1c-2.15 2.57-4.984 4.38-6 8Zm2086-220h2v2c1.33 1 2.67 2 4 3v2c1.33 1 2.67 2 4 3v2c.67.33 1.33.67 2 1v2c.67.33 1.33.67 2 1v2c.67.33 1.33.67 2 1 .67 2 1.33 4 2 6 11.77 19.2 18 44 18 75 0 11.49.49 24.27-2 33v8h-1v4h-1v6h-1c-.33 2.33-.67 4.67-1 7h-1v3h-1v4h-1v2h-1c-.67 3-1.33 6-2 9h-1c-.33 1.33-.67 2.67-1 4h-1v2h-1v3c-.67.33-1.33.67-2 1-.67 2-1.33 4-2 6-.67.33-1.33.67-2 1v2h-1v2h-1v2c-.67.33-1.33.67-2 1v2c-1 .67-2 1.33-3 2v2c-.67.33-1.33.67-2 1-.33 1-.67 2-1 3-2 1.67-4 3.33-6 5v2q-4.5 4.005-9 8c-1 1.33-2 2.67-3 4h-2c-1.33 1.67-2.67 3.33-4 5h-2c-1 1.33-2 2.67-3 4h-2c-.33.67-.67 1.33-1 2-1 .33-2 .67-3 1v1h-2c-.33.67-.67 1.33-1 2-1 .33-2 .67-3 1v1c-1.33.33-2.67.67-4 1v1h-2v1c-2 .67-4 1.33-6 2v1h-3c-.33.67-.67 1.33-1 2h-4v1h-2v1c-3.33.67-6.67 1.33-10 2v1h-3v1h-7c-14.68 4.28-39.44 2.23-52-2h-4q-12-4.995-24-10c-.33-.67-.67-1.33-1-2-2-.67-4-1.33-6-2-.33-.67-.67-1.33-1-2h-2c-.67-1-1.33-2-2-3h-2c-.67-1-1.33-2-2-3h-2c-1-1.33-2-2.67-3-4-19.07-13.72-32.79-35.47-42-59v-4h-1v-3h-1c-.33-2.33-.67-4.67-1-7h-1c-.33-3.33-.67-6.67-1-10h-1v-9c-3.37-12-3.41-38.96 0-51v-9h1c.33-3.33.67-6.67 1-10h1v-4h1v-5h1v-2h1v-4h1c.33-2 .67-4 1-6h1v-2h1v-4c.67-.33 1.33-.67 2-1v-3h1v-2h1v-3c.67-.33 1.33-.67 2-1 .67-2 1.33-4 2-6 .67-.33 1.33-.67 2-1v-3h1c.33-1 .67-2 1-3 .67-.33 1.33-.67 2-1v-2c.67-.33 1.33-.67 2-1v-2c.67-.33 1.33-.67 2-1 .33-1 .67-2 1-3 1.67-1.33 3.33-2.67 5-4v-2q4.005-3.495 8-7 4.005-4.5 8-9h2c1-1.33 2-2.67 3-4h2c1-1.33 2-2.67 3-4h2c.33-.67.67-1.33 1-2 1-.33 2-.67 3-1v-1h2c.33-.67.67-1.33 1-2 2-.67 4-1.33 6-2 .33-.67.67-1.33 1-2h3c.33-.67.67-1.33 1-2h3v-1h2v-1h3c.33-.67.67-1.33 1-2h4v-1h2v-1h4v-1h3v-1h5c18.31-6.03 45.34-4.48 62 2h4v1c2 .33 4 .67 6 1v1h2v1h3c.33.67.67 1.33 1 2h3v1h2v1h2c.33.67.67 1.33 1 2 2 .67 4 1.33 6 2 .33.67.67 1.33 1 2h2v1c1 .33 2 .67 3 1 .33.67.67 1.33 1 2h2c.67 1 1.33 2 2 3 1 .33 2 .67 3 1 1.67 2 3.33 4 5 6 3.72 2.7 8.68 5.02 10 10Zm-1811-1c-6.99-.35-13.433-3.21-19-5h-7v-1h-6v-1h-18a93.215 93.215 0 0 0-39 8h-3v1h-2v1h-3c-.333.67-.667 1.33-1 2-2 .67-4 1.33-6 2-.333.67-.667 1.33-1 2h-2l-2 3h-2c-1.333 1.67-2.667 3.33-4 5h-2l-2 3c-.667.33-1.333.67-2 1v2c-2 1.67-4 3.33-6 5v2c-.667.33-1.333.67-2 1v2c-1 .67-2 1.33-3 2l-1 4h-1l-1 3c-.667.33-1.333.67-2 1v3c-.667.33-1.333.67-2 1v3c-.667.33-1.333.67-2 1v3h-1v2h-1l-1 5h-1v4h-1v2h-1v5h-1v3h-1v6h-1v4h-1v11h-1l1 35h1v4h1v6h1v3h1l2 10h1v2h1v3h1v2h1v3c.667.33 1.333.67 2 1v3c.667.33 1.333.67 2 1l2 6h1l1 3c.667.33 1.333.67 2 1v2c.667.33 1.333.67 2 1v2c1 .67 2 1.33 3 2v2c1.667 1.33 3.333 2.67 5 4v2l7 6 2 3h2c1 1.33 2 2.67 3 4h2c.333.67.667 1.33 1 2h2c.333.67.667 1.33 1 2h2c.333.67.667 1.33 1 2h2c.333.67.667 1.33 1 2h3c.333.67.667 1.33 1 2h3c.333.67.667 1.33 1 2h3v1h2v1c1.667.33 3.333.67 5 1v1h4v1h3v1c3 .33 6 .67 9 1v1h8v1h9v1h18v-1q8-.495 16-1v-1h4v-1h6v-1h3v-1h6v-1h3c2.67-1 5.33-2 8-3v1h1v6h-1v8c-.24 1.39-.61-.36-1 1-1.75 6.19 1.74 13.21-2 17v1c-2 .33-4 .67-6 1v1h-5v1h-3v1h-6v1h-5v1h-10v1h-10v1q-17.5-.495-35-1v-1h-10v-1h-5v-1h-7v-1h-3v-1h-5v-1h-2v-1h-5v-1h-2v-1h-3v-1c-1.667-.33-3.333-.67-5-1v-1h-2v-1h-3v-1c-1.333-.33-2.667-.67-4-1v-1c-1.333-.33-2.667-.67-4-1-.333-.67-.667-1.33-1-2-2-.67-4-1.33-6-2-.333-.67-.667-1.33-1-2h-2l-2-3h-2l-2-3c-2.163-1.54-4.071-2.08-6-4a167.257 167.257 0 0 1-38-58v-4h-1v-3h-1v-4h-1v-4h-1l-1-9h-1v-10c-2.874-10.32-2.917-28.68 0-39l2-20h1v-3h1v-4h1v-3h1v-4h1v-2h1v-3h1v-2h1v-3h1v-2h1v-3h1l2-6h1v-2h1l1-4c.667-.33 1.333-.67 2-1v-2c.667-.33 1.333-.67 2-1l1-4c.667-.33 1.333-.67 2-1v-2c.667-.33 1.333-.67 2-1v-2c1-.67 2-1.33 3-2v-2c1-.67 2-1.33 3-2v-2c1.667-1.33 3.333-2.67 5-4v-2l10-9c1.333-1.67 2.667-3.33 4-5h2c1-1.33 2-2.67 3-4h2l2-3h2c.333-.67.667-1.33 1-2 1-.33 2-.67 3-1v-1h2c.333-.67.667-1.33 1-2 1.333-.33 2.667-.67 4-1 .333-.67.667-1.33 1-2h3c.333-.67.667-1.33 1-2h3c.333-.67.667-1.33 1-2h3v-1h2v-1h3c.333-.67.667-1.33 1-2h4v-1h2v-1h4v-1h2v-1h5c22.857-7.63 64.551-8.53 86 1l-6 34Zm1477 95a99.136 99.136 0 0 1 38 16c1.33 1.67 2.67 3.33 4 5 1.33 1 2.67 2 4 3v2c1 .67 2 1.33 3 2 .33 1.33.67 2.67 1 4 .67.33 1.33.67 2 1 .33 1.33.67 2.67 1 4h1c.33 1.33.67 2.67 1 4h1v4h1v2h1v5h1v4h1v13h1q-.495 10.5-1 21h-1c-.33 3-.67 6-1 9h-1v3h-1v4h-1c-.67 2-1.33 4-2 6h-1v3c-.67.33-1.33.67-2 1-.67 2-1.33 4-2 6-.67.33-1.33.67-2 1v2c-1.33 1-2.67 2-4 3v2c-2 1.67-4 3.33-6 5q-3 3.495-6 7h-2c-1 1.33-2 2.67-3 4h-2c-.33.67-.67 1.33-1 2h-2c-.33.67-.67 1.33-1 2h-2c-.33.67-.67 1.33-1 2h-3c-.33.67-.67 1.33-1 2h-2v1h-2v1h-3v1h-2v1c-1.67.33-3.33.67-5 1v1h-3v1h-3v1c-2.33.33-4.67.67-7 1v1c-3.67.33-7.33.67-11 1v1h-11v1c-5.11 1.42-27.2.07-31-1h-17v-1h-6v-1h-9v-1h-5v-1h-6v-1h-3v-1h-6c-3.06-1.01-20.1-6.29-21-8v-3h1v-7h1l3-24c6.81.37 11.03 4.03 16 6h4v1h2v1q6 1.005 12 2v1h3v1q7.5 1.005 15 2c9.62 2.83 37.5 5.22 49 2h10v-1h4v-1h5v-1h2v-1h4v-1h2v-1h3c.33-.67.67-1.33 1-2h3c.33-.67.67-1.33 1-2h2c.33-.67.67-1.33 1-2h2v-1c1.75-1.43 2.41-2.3 5-3 .81-2.96 2.34-3.95 4-6h1c.33-1.33.67-2.67 1-4 .67-.33 1.33-.67 2-1v-3c.67-.33 1.33-.67 2-1v-4h1v-2h1v-5h1v-6h1c2.68-9.42-4.06-29.55-7-34-1-.67-2-1.33-3-2v-2c-1-.67-2-1.33-3-2-1-1.33-2-2.67-3-4h-2c-.33-.67-.67-1.33-1-2-1-.33-2-.67-3-1v-1h-2v-1h-2v-1h-2v-1h-2v-1h-2v-1h-2v-1h-4v-1h-2v-1h-4v-1h-2v-1h-5c-20.82-6.97-48.28-3.99-74-4-.33-1-.67-2-1-3h1v-5h1v-8h1v-5h1c1.4-4.73-1.15-7.84 2-11v-1h6c1.92 1.71 7.48 1 11 1 10.06 0 23.7 1.39 32-1q7.005-.495 14-1v-1h4v-1h4v-1h3v-1h3v-1h2v-1h3c.33-.67.67-1.33 1-2 1.33-.33 2.67-.67 4-1 .33-.67.67-1.33 1-2h2c1.33-1.67 2.67-3.33 4-5 1.33-1 2.67-2 4-3v-2c.67-.33 1.33-.67 2-1v-2c.67-.33 1.33-.67 2-1v-3c.67-.33 1.33-.67 2-1v-4h1v-3h1v-8h1q-.495-9-1-18h-1v-2h-1v-4c-.67-.33-1.33-.67-2-1-.33-1.33-.67-2.67-1-4-1-.67-2-1.33-3-2v-2c-1-.67-2-1.33-3-2v-1h-2c-1-1.33-2-2.67-3-4h-2v-1c-2-.67-4-1.33-6-2v-1h-3v-1h-2v-1h-5v-1h-3v-1q-6.495-.495-13-1v-1c-5.13-1.44-28.17-.09-32 1q-9 .495-18 1v1h-5v1h-6v1h-3v1h-5v1c-2.33.33-4.67.67-7 1v1h-2v1h-4v1c-2 .33-4 .67-6 1-.07-11.74 3.77-20.26 4-32a10.015 10.015 0 0 0 2-2c1.67-.33 3.33-.67 5-1v-1h5v-1h3v-1h6v-1h4v-1h8v-1h6v-1h13v-1h14c9.94-2.76 32.22-1.5 41 1h8v1h3v1h5v1h2v1c3 .67 6 1.33 9 2v1h2v1c2 .67 4 1.33 6 2 .33.67.67 1.33 1 2h2c1 1.33 2 2.67 3 4h2c1.67 2 3.33 4 5 6 1 .67 2 1.33 3 2v2c.67.33 1.33.67 2 1 .33 1 .67 2 1 3h1v2c.67.33 1.33.67 2 1v2h1v2h1v3c.67.33 1.33.67 2 1v4h1v3h1c.97 2.98 2.14 22.98 1 27h-1v7h-1c-.33 2.33-.67 4.67-1 7h-1v3h-1v3c-.67.33-1.33.67-2 1v3c-.67.33-1.33.67-2 1v2c-.67.33-1.33.67-2 1v2c-.67.33-1.33.67-2 1v2q-4.5 4.005-9 8c-1 1.33-2 2.67-3 4h-2c-.33.67-.67 1.33-1 2h-2c-.33.67-.67 1.33-1 2h-2c-.33.67-.67 1.33-1 2h-2v1h-2v1h-2v1h-2v1h-2v1c-2.79 1.71-1.79-.9-3 3Zm-2166 42v58c1.529 5.45-.7 14.94 1 21h1v29h1v9c-1.135.84-.145-.13-1 1h-40v-2h-1v-1h1v-29h1v-24h1v-147c0-11.28 1.652-26.52-1-36v-23h-1v-9c-.006-6.85-.037-14.61-1-20 5.076-1.86 14.279-1 21-1h44c2.026-1.82 8.314-1 12-1 11.515 0 27.313-1.81 37 1h10v1c3.333.33 6.667.67 10 1v1h3v1h4v1h2v1h3v1h2v1h3v1h2v1h2c.333.67.667 1.33 1 2 2 .67 4 1.33 6 2l2 3h2c1.333 1.67 2.667 3.33 4 5h2v1c1 .67 2 1.33 3 2v2l4 3v2c.667.33 1.333.67 2 1v2c.667.33 1.333.67 2 1l1 4h1l1 4h1l2 10h1v4h1v14h1v1h-1v17h-1v5h-1v5h-1v3h-1v4h-1l-1 5h-1v2h-1v3c-.667.33-1.333.67-2 1l-2 6c-.667.33-1.333.67-2 1v2c-.667.33-1.333.67-2 1v2c-1.666 1.33-3.334 2.67-5 4v2c-.667.33-1.333.67-2 1-1 1.33-2 2.67-3 4h-2c-1.333 1.67-2.667 3.33-4 5h-2c-.333.67-.667 1.33-1 2h-2c-.333.67-.667 1.33-1 2h-2c-.333.67-.667 1.33-1 2h-2c-.333.67-.667 1.33-1 2h-3c-.333.67-.667 1.33-1 2h-2v1h-2v1h-3c-.333.67-.667 1.33-1 2h-3v1h-2v1c-1.666.33-3.334.67-5 1v1h-4v1h-2v1h-5v1h-3v1h-5v1h-3v1h-6v1h-5v1h-10v1h-8v1h-35Zm1575-42c24.52 4.28 46.17 17.16 55 37v3h1v2h1v4h1v3h1v6h1c.94 3.13 2.21 21.85 1 26h-1v5h-1v6h-1v3h-1v4h-1v2h-1v3h-1c-.33 1.33-.67 2.67-1 4h-1c-.33 1.33-.67 2.67-1 4-.67.33-1.33.67-2 1v2c-.67.33-1.33.67-2 1v2c-1 .67-2 1.33-3 2v2c-1 .67-2 1.33-3 2q-3.495 4.005-7 8h-2c-1 1.33-2 2.67-3 4h-2c-.33.67-.67 1.33-1 2h-2c-.33.67-.67 1.33-1 2-2 .67-4 1.33-6 2-38.73 23.76-94.39 17.98-154 18-1.16-3.1-1.05-8.43-1-13 2.04-2.35 1-15.38 1-20q.495-26.49 1-53c1.54-5.53 1-14.85 1-22v-108h-1v-32h-1v-33h-1v-10c4.83-1.77 13.55-1 20-1h42c2.04-1.82 8.3-1 12-1 10.8 0 23.82-.49 33 1h11v1h5v1h6v1c2.33.33 4.67.67 7 1v1c2 .33 4 .67 6 1v1c1.67.33 3.33.67 5 1v1c1.33.33 2.67.67 4 1v1c1.33.33 2.67.67 4 1 .33.67.67 1.33 1 2h2c.67 1 1.33 2 2 3h2c1.67 2 3.33 4 5 6 .67.33 1.33.67 2 1v2c1 .67 2 1.33 3 2 .33 1.33.67 2.67 1 4 .67.33 1.33.67 2 1v3h1v2h1c.33 1.67.67 3.33 1 5h1v6h1v4h1v21h-1v6h-1v6h-1v2h-1v4h-1v2h-1v3h-1v2h-1c-.67 2-1.33 4-2 6-1 .67-2 1.33-3 2v2c-1 .67-2 1.33-3 2q-3 3.495-6 7c-2.78 2.68-6.65 3.84-10 6-.33.67-.67 1.33-1 2h-3c-.33.67-.67 1.33-1 2-3.77 1.98-4.3-1.4-6 4Zm1163-3v3c21.85 4 41 15.12 51 31l3 9h1v2h1c.33 2 .67 4 1 6h1v6h1v5h1c1.25 4.37 0 24.71-1 28h-1v6h-1c-.67 3-1.33 6-2 9h-1c-.33 1.33-.67 2.67-1 4h-1v3c-.67.33-1.33.67-2 1-.33 1.33-.67 2.67-1 4-.67.33-1.33.67-2 1v2c-1 .67-2 1.33-3 2v2c-1.33 1-2.67 2-4 3q-3.495 4.005-7 8h-2c-1 1.33-2 2.67-3 4h-2c-.33.67-.67 1.33-1 2-1 .33-2 .67-3 1v1c-2 .67-4 1.33-6 2-.33.67-.67 1.33-1 2h-3c-.33.67-.67 1.33-1 2h-3v1c-2 .67-4 1.33-6 2v1h-4v1h-2v1h-4v1h-2v1h-5v1h-3v1h-6c-30 9.22-77.21 3.99-114 4-.84-2.23-1.03-5.44-1-9 2.54-2.93 1-14.05 1-19q.495-24.495 1-49c1.62-5.81 1-15.56 1-23v-125h-1v-28h-1v-32h-1v-6c5.08-1.86 14.28-1 21-1h42c2.5-2.24 11.62-1 16-1 15.49 0 32.1-.59 44 3h6v1h3v1h5v1h2v1h4c.33.67.67 1.33 1 2h3v1c1.33.33 2.67.67 4 1v1c1.33.33 2.67.67 4 1 .33.67.67 1.33 1 2h2c.33.67.67 1.33 1 2h2c.67 1 1.33 2 2 3q3.495 3 7 6v2c1 .67 2 1.33 3 2 .67 2 1.33 4 2 6h1v2h1v3h1v3h1c.33 3 .67 6 1 9h1c1.45 4.95.06 20.46-1 24v5h-1v5h-1v3h-1v4h-1v2h-1v3c-.67.33-1.33.67-2 1-.67 2-1.33 4-2 6-.67.33-1.33.67-2 1v2c-1.67 1.33-3.33 2.67-5 4v2c-.67.33-1.33.67-2 1v1h-2c-1 1.33-2 2.67-3 4h-2c-.67 1-1.33 2-2 3-1.33.33-2.67.67-4 1-.33.67-.67 1.33-1 2ZM209 1442l-1 33a15.721 15.721 0 0 1-6 1c-3.934-3.41-18.822.72-25-1-10.475-2.92-29.455-1-42-1h-12v-1H63c-.918 2.44-1.037 6.19-1 10 2.071 2.36 1 16.28 1 21v59c5.326 1.95 15.008 1 22 1h44c2.126 1.79 5.687.05 9 1v1h10v1h4v1h7v1h3v1h5v1c2.333.33 4.667.67 7 1v1h2v1h3v1c1.667.33 3.333.67 5 1v1c1.333.33 2.667.67 4 1v1c1.333.33 2.667.67 4 1 .333.67.667 1.33 1 2h2v1c1 .33 2 .67 3 1 .333.67.667 1.33 1 2h2l5 6c1.667 1.33 3.333 2.67 5 4v2c1 .67 2 1.33 3 2v2c.667.33 1.333.67 2 1l1 4h1l1 4h1v3h1v2h1v4h1v3h1v6c3.855 13 1.956 28.93-2 40v4h-1v2h-1v3h-1l-1 4h-1l-1 4c-.667.33-1.333.67-2 1v2h-1l-1 3c-.667.33-1.333.67-2 1v2c-1.667 1.33-3.333 2.67-5 4q-3 3.495-6 7h-2c-1 1.33-2 2.67-3 4h-2c-.333.67-.667 1.33-1 2-1.333.33-2.667.67-4 1-.333.67-.667 1.33-1 2-2 .67-4 1.33-6 2v1h-2v1c-2 .67-4 1.33-6 2v1h-3v1h-2v1h-3v1h-2v1h-4v1h-3v1c-2.333.33-4.667.67-7 1v1h-6v1h-4v1h-8v1h-6v1h-14c-6.937 1.94-18.38 1-27 1q-27.5-.495-55-1a3.991 3.991 0 0 0-2-2c3.027-8.56 2-22.72 2-34v-13h1v-35c2.079-7.18 1-19.12 1-28v-106h-1l-1-55c0-4.53-1.706-16.34-1-17 2.069-2.86 7.171-2 12-2h170Zm948 0h50c.84 1.13-.13.15 1 1-.12 5.44.79 5.7 2 9v4h1v2h1v4h1v2h1v4h1v2h1v4h1v2h1c.67 3 1.33 6 2 9h1v2h1c.67 3 1.33 6 2 9h1c.33 1.67.67 3.33 1 5h1v2h1c.67 3 1.33 6 2 9 .67.33 1.33.67 2 1 .67 3 1.33 6 2 9h1v2h1v3h1v2h1c.33 1.67.67 3.33 1 5h1v3h1v2h1v3h1v2h1v3h1v2h1v4c.67.33 1.33.67 2 1v4c.67.33 1.33.67 2 1v4c.67.33 1.33.67 2 1v4h1v2h1v3c.67.33 1.33.67 2 1 .67 3 1.33 6 2 9 .67.33 1.33.67 2 1 .67 3 1.33 6 2 9 .67.33 1.33.67 2 1v4c.67.33 1.33.67 2 1v4c.67.33 1.33.67 2 1v4c.67.33 1.33.67 2 1v4c.67.33 1.33.67 2 1v4c.67.33 1.33.67 2 1v4c.67.33 1.33.67 2 1v4h1v2h1v3h1v2h1v3h1c.33 1.67.67 3.33 1 5h1v2h1v3h1v2h1v3h1v2h1c.33 1.67.67 3.33 1 5h1v3h1v2h1v4c.67.33 1.33.67 2 1v4h1c.33 1.67.67 3.33 1 5h1v2h1v3h1v2h1v4h1v2h1c.33 1.67.67 3.33 1 5h1v4h1v2h1c.67 3 1.33 6 2 9h1v2h1v4h1v2h1v5h1v2h1v7h-45l-3-18h-1v-3h-1v-5h-1v-2h-1v-5h-1v-2h-1v-4h-1v-3h-1v-4h-1v-2h-1v-4h-1v-2h-1v-4h-1v-3h-1v-3h-1v-3h-1v-3h-1v-3h-1v-3h-1v-3h-1v-3h-1v-2h-1v-4h-1c-.33-1.67-.67-3.33-1-5h-1c-1.71-1.49-5.8-1-9-1h-117q-10.5 31.995-21 64v4h-1v3h-1v5h-1v3h-1v6h-1c-1.16 3.72.5 5.54-2 8-1.93 1.71-7.47 1-11 1h-31c-.84-1.13.13-.15-1-1v-1h1v-3h1v-4h1v-2h1v-4h1v-2h1v-3h1v-2h1c.33-1.67.67-3.33 1-5h1v-4c.67-.33 1.33-.67 2-1v-4h1c.33-1.67.67-3.33 1-5h1v-2h1v-3h1v-2h1v-3h1v-2h1c.33-1.67.67-3.33 1-5h1v-3h1v-2h1v-3h1v-2h1v-3h1v-2h1v-3h1c.33-1.67.67-3.33 1-5h1v-2h1v-3c.67-.33 1.33-.67 2-1v-3h1v-2h1v-3h1v-2h1c.33-1.67.67-3.33 1-5h1v-3h1v-2h1v-3h1v-2h1v-3h1v-2h1v-3c.67-.33 1.33-.67 2-1l6-18h1c.33-1.67.67-3.33 1-5h1v-2h1c.33-1.33.67-2.67 1-4h1v-3h1v-2h1v-3h1v-2h1v-3h1c.33-1.67.67-3.33 1-5h1v-2h1v-3c.67-.33 1.33-.67 2-1v-4c.67-.33 1.33-.67 2-1v-3h1v-2h1c.33-1.67.67-3.33 1-5h1v-3h1v-2h1v-3h1c.33-1.67.67-3.33 1-5h1v-2h1v-3h1v-2h1v-3h1v-2h1v-3h1v-2h1v-3h1v-2h1v-3h1v-2h1v-3h1v-2h1c.33-1.67.67-3.33 1-5h1v-4c.67-.33 1.33-.67 2-1v-4h1v-2h1c.33-1.67.67-3.33 1-5h1v-4h1v-2h1c.67-3 1.33-6 2-9h1v-2h1v-4h1v-2h1l3-14Zm201 0h40a19.157 19.157 0 0 1 1 7c-2.33 2.7-1 12.39-1 17q-.495 20.505-1 41c-3.13 18.77-1 46.14-1 67v45h-1v26h-1v18h3c.67-2 1.33-4 2-6h1v-2c.67-.33 1.33-.67 2-1 .67-2 1.33-4 2-6h1c.33-1 .67-2 1-3 .67-.33 1.33-.67 2-1v-2h1c.33-1 .67-2 1-3 .67-.33 1.33-.67 2-1v-2c.67-.33 1.33-.67 2-1 .33-1 .67-2 1-3 1-.67 2-1.33 3-2v-2h1c.33-1 .67-2 1-3 .67-.33 1.33-.67 2-1v-2c1.33-1 2.67-2 4-3v-2c.67-.33 1.33-.67 2-1v-2c1.33-1 2.67-2 4-3v-2c1-.67 2-1.33 3-2v-2c1-.67 2-1.33 3-2v-2c1.33-1 2.67-2 4-3v-2c1-.67 2-1.33 3-2v-2c1-.67 2-1.33 3-2v-2c1.33-1 2.67-2 4-3v-2c1.33-1 2.67-2 4-3v-2c.67-.33 1.33-.67 2-1v-1c.67-.33 1.33-.67 2-1v-2c1.33-1 2.67-2 4-3v-2c1.33-1 2.67-2 4-3v-2c1.33-1 2.67-2 4-3v-2c1.67-1.33 3.33-2.67 5-4v-2c1.33-1 2.67-2 4-3v-2c1.33-1 2.67-2 4-3v-2c1.33-1 2.67-2 4-3v-2c1.33-1 2.67-2 4-3v-2c1-.67 2-1.33 3-2v-2c1.33-1 2.67-2 4-3v-2c1-.67 2-1.33 3-2v-2c1-.67 2-1.33 3-2v-2c1-.67 2-1.33 3-2v-2c1-.67 2-1.33 3-2v-2c.67-.33 1.33-.67 2-1v-2c1-.67 2-1.33 3-2v-2c1-.67 2-1.33 3-2v-2c.67-.33 1.33-.67 2-1 .33-1 .67-2 1-3h1v-2c.67-.33 1.33-.67 2-1v-2c.67-.33 1.33-.67 2-1v-2c.67-.33 1.33-.67 2-1 .33-1 .67-2 1-3h1v-2h1v-2h1v-2c.67-.33 1.33-.67 2-1 .67-2 1.33-4 2-6 .67-.33 1.33-.67 2-1v-3c.67-.33 1.33-.67 2-1v-3h1v-2h1c.33-1.67.67-3.33 1-5h1c1.21-3.07-.03-6.78 2-9 1.68-1.51 5.82-1 9-1h21q-1.005 25.5-2 51c0 12.16 1.89 28.67-1 39v58q.495 55.5 1 111h1q.495 16.005 1 32c-7.67 2.82-29.71 1.05-40 1-1-2.65-1.04-6.94-1-11 2.33-2.69 1-12.4 1-17q.495-19.995 1-40v-7h1v-126c1.38-4.96 1-13.45 1-20h-3c-.4 4.4-2.37 6.11-4 9v2c-.67.33-1.33.67-2 1v2c-.67.33-1.33.67-2 1-.67 2-1.33 4-2 6h-1c-.33 1-.67 2-1 3-.67.33-1.33.67-2 1v2h-1c-.33 1-.67 2-1 3-.67.33-1.33.67-2 1v2c-1 .67-2 1.33-3 2v2c-1 .67-2 1.33-3 2v2c-.67.33-1.33.67-2 1v2c-1 .67-2 1.33-3 2v2c-1 .67-2 1.33-3 2v2c-.67.33-1.33.67-2 1v2c-1 .67-2 1.33-3 2v2c-.67.33-1.33.67-2 1-.33 1-.67 2-1 3-1.33 1-2.67 2-4 3v2c-.67.33-1.33.67-2 1v2c-1.33 1-2.67 2-4 3v2c-1.33 1-2.67 2-4 3v2c-1 .67-2 1.33-3 2v2c-1 .67-2 1.33-3 2v2c-1.33 1-2.67 2-4 3v2c-1.33 1-2.67 2-4 3v2c-1.33 1-2.67 2-4 3v2c-1.33 1-2.67 2-4 3v2c-1.33 1-2.67 2-4 3v2c-1.33 1-2.67 2-4 3v2c-1 .67-2 1.33-3 2v2c-1 .67-2 1.33-3 2v2c-.67.33-1.33.67-2 1v1c-.67.33-1.33.67-2 1v2c-1.33 1-2.67 2-4 3v2c-1 .67-2 1.33-3 2v2c-1 .67-2 1.33-3 2v2c-1.33 1-2.67 2-4 3v2c-.67.33-1.33.67-2 1v2c-1.33 1-2.67 2-4 3v2c-.67.33-1.33.67-2 1v2c-.67.33-1.33.67-2 1-.33 1-.67 2-1 3-1 .67-2 1.33-3 2v2c-.67.33-1.33.67-2 1-.33 1-.67 2-1 3h-1v2c-.67.33-1.33.67-2 1v2c-.67.33-1.33.67-2 1v2c-.67.33-1.33.67-2 1v2c-.67.33-1.33.67-2 1v2c-.67.33-1.33.67-2 1v2h-1c-.33 1.33-.67 2.67-1 4-.67.33-1.33.67-2 1-.67 2-1.33 4-2 6-.67.33-1.33.67-2 1v3h-1c-.67 2-1.33 4-2 6h-1c-.67 3.33-1.33 6.67-2 10h-29c-1.08-2.87-1.04-7.69-1-12 2.67-3.08-.29-10.38 1-15 1.94-6.97.95-18.36 1-27v-6h1v-36h1v-87c-2.18-7.79-.99-20.49-1-30v-9c-2.53-9.03-.75-23.21-1-34-.27-11.53-1.97-23.49-2-36Zm699 113c17.19-.24 40.51-3.39 56 1h10v1h5v1h7v1h3v1q6 1.005 12 2v1h2v1h4v1h2v1h3v1c2 .67 4 1.33 6 2v1h2v1c1.33.33 2.67.67 4 1 .33.67.67 1.33 1 2h2c.33.67.67 1.33 1 2h2c1 1.33 2 2.67 3 4h2q3 3.495 6 7c.67.33 1.33.67 2 1v2c1.33 1 2.67 2 4 3 .67 2 1.33 4 2 6 .67.33 1.33.67 2 1v2h1v2h1v3h1v2h1v4h1v2h1v6h1v4h1v30h-1c-.33 3.33-.67 6.67-1 10h-1v2h-1v4h-1c-.33 1.67-.67 3.33-1 5h-1c-.33 1.33-.67 2.67-1 4h-1c-.33 1.33-.67 2.67-1 4-.67.33-1.33.67-2 1-.33 1.33-.67 2.67-1 4-1 .67-2 1.33-3 2v2h-1c-1.92 2.3-4.08 3.72-5 7h-2v2h-2c-1.67 2-3.33 4-5 6h-2c-.33.67-.67 1.33-1 2h-2c-.33.67-.67 1.33-1 2h-2c-.33.67-.67 1.33-1 2h-2c-.33.67-.67 1.33-1 2h-2v1h-2v1h-2v1h-2v1h-2v1h-2v1h-3c-33.33 17.08-83.03 11.71-131 12v-2h-1c-.29-1.67.94-1.75 1-2v-18s.84-.1 1-2c1.03-11.89-1.85-26.81 1-37q.495-37.5 1-75v-43c0-7.44.62-17.19-1-23v-36h-1v-18c0-12.11-.11-24.45-2-35 7.82-2.88 30.51-1.05 41-1 .84 2.23 1.03 5.44 1 9-3.26 3.75.63 17.16-1 23-2.33 8.36-1 21.9-1 32q-.495 24.5-1 49Zm192-113h40a10.587 10.587 0 0 1 1 4c-2.81 3.24.35 11.16-1 16-1.93 6.95-.99 18.37-1 27q-.495 16.995-1 34v12h-1v94c2.26 8.07 1 21.2 1 31v10c2.18 7.78 1 20.5 1 30q1.005 16.5 2 33c-7.82 2.88-30.51 1.05-41 1-1-2.65-1.04-6.94-1-11 2.9-3.35.53-14.6 1-20 .9-10.33 1-24.09 1-36v-16h1v-51q-.495-55.5-1-111-.495-16.5-1-33c-.07-5.56-1.81-8.99 0-14Zm-1623 26c-2.255 2.05-4.812.86-8 2v1c-2 .33-4 .67-6 1v1h-2v1h-3c-.333.67-.667 1.33-1 2h-2v1c-1.333.33-2.667.67-4 1-.333.67-.667 1.33-1 2h-2c-.333.67-.667 1.33-1 2h-2c-1 1.33-2 2.67-3 4h-2q-4.5 4.995-9 10c-1.667 1.33-3.333 2.67-5 4v2l-4 3v2c-.667.33-1.333.67-2 1l-1 3h-1v2c-.667.33-1.333.67-2 1l-1 4c-.667.33-1.333.67-2 1v3c-.667.33-1.333.67-2 1v3h-1v2h-1l-1 5h-1v3h-1v2h-1v5h-1v2h-1v5h-1v4h-1l-1 12h-1v14c-.671 4.02-2.546 13.51-1 19h1v15h1v5h1v7h1v4h1v5h1v2h1l2 10h1v2h1v3c.667.33 1.333.67 2 1v3h1v2h1v2c.667.33 1.333.67 2 1l1 4c.667.33 1.333.67 2 1v2c.667.33 1.333.67 2 1v2c1 .67 2 1.33 3 2v2q4.5 4.005 9 8 3 3.495 6 7h2c1 1.33 2 2.67 3 4h2c.333.67.667 1.33 1 2h2c.333.67.667 1.33 1 2 1 .33 2 .67 3 1v1c1.333.33 2.667.67 4 1v1c1.333.33 2.667.67 4 1v1h3c.333.67.667 1.33 1 2h4v1h2v1h4v1h4v1h7c3.3.93 16.279 2.34 21 1v-1h7v-1h2v-1h4v-1h2v-1h4c.333-.67.667-1.33 1-2h3c.333-.67.667-1.33 1-2 2-.67 4-1.33 6-2 .333-.67.667-1.33 1-2h2c1-1.33 2-2.67 3-4 17.071-12.28 28.186-29.49 37-50v-3h1v-3h1l1-7h1l1-9h1v-7h1v-6h1v-13c0-11.77.582-25.03-2-34v-7h-1l-1-9h-1l-1-7h-1v-3h-1v-3c-13.271-30.72-33.792-51.15-66-63h-5c-8.03-2.54-20.078-2.04-31-2Zm2081 0c-2.63 2.54-4.37.65-8 2v1h-2v1h-4c-.33.67-.67 1.33-1 2h-3v1h-2v1h-2c-.33.67-.67 1.33-1 2-2 .67-4 1.33-6 2-.33.67-.67 1.33-1 2-1 .33-2 .67-3 1-1.33 1.67-2.67 3.33-4 5h-2q-3.495 4.005-7 8c-1 .67-2 1.33-3 2v2c-1.33 1-2.67 2-4 3-.33 1-.67 2-1 3-.67.33-1.33.67-2 1v2c-.67.33-1.33.67-2 1-.33 1-.67 2-1 3h-1c-.33 1.33-.67 2.67-1 4-.67.33-1.33.67-2 1v3c-.67.33-1.33.67-2 1v3c-.67.33-1.33.67-2 1v3h-1v2h-1c-.33 1.67-.67 3.33-1 5h-1v4h-1v3h-1v4h-1v4h-1c-.33 3.33-.67 6.67-1 10h-1v10h-1v13h-1q.495 12.495 1 25h1v10h1v4h1v6h1v3h1v5q4.995 12 10 24c.67.33 1.33.67 2 1 .33 1.33.67 2.67 1 4 .67.33 1.33.67 2 1v2c.67.33 1.33.67 2 1 .33 1 .67 2 1 3 1.33 1 2.67 2 4 3v2q4.005 3.495 8 7c.67 1 1.33 2 2 3h2c1.33 1.67 2.67 3.33 4 5 1 .33 2 .67 3 1 .33.67.67 1.33 1 2h2c.33.67.67 1.33 1 2 2 .67 4 1.33 6 2 .33.67.67 1.33 1 2h3c.33.67.67 1.33 1 2h3v1h2v1h3v1h2v1h5v1h3v1h8c3.17.89 15.41 2.3 20 1v-1h7v-1h3v-1h4v-1h2v-1h3c.33-.67.67-1.33 1-2h3v-1h2v-1h2c.33-.67.67-1.33 1-2h2v-1c1-.33 2-.67 3-1 .33-.67.67-1.33 1-2h2c1.33-1.67 2.67-3.33 4-5h2q3-3.495 6-7c.67-.33 1.33-.67 2-1v-2c2-1.67 4-3.33 6-5v-2c.67-.33 1.33-.67 2-1v-2c.67-.33 1.33-.67 2-1v-2c.67-.33 1.33-.67 2-1v-2c.67-.33 1.33-.67 2-1 .67-2 1.33-4 2-6 .67-.33 1.33-.67 2-1v-3h1v-2h1c.33-1.33.67-2.67 1-4h1c.33-2 .67-4 1-6h1v-3h1v-3h1c.33-2.33.67-4.67 1-7h1c.33-3.33.67-6.67 1-10h1v-9c2.94-10.53 2.95-31.53 0-42v-10h-1c-.33-3.33-.67-6.67-1-10h-1c-.33-2.33-.67-4.67-1-7h-1v-3h-1v-3h-1v-2h-1v-3h-1v-2h-1v-3h-1c-.33-1.33-.67-2.67-1-4h-1c-.33-1.33-.67-2.67-1-4-.67-.33-1.33-.67-2-1v-2c-.67-.33-1.33-.67-2-1v-2h-1c-.33-1-.67-2-1-3-.67-.33-1.33-.67-2-1v-2c-2-1.67-4-3.33-6-5v-2c-.67-.33-1.33-.67-2-1-.67-1-1.33-2-2-3h-2q-3-3.495-6-7h-2c-.67-1-1.33-2-2-3h-2c-.33-.67-.67-1.33-1-2h-2c-.33-.67-.67-1.33-1-2-1.33-.33-2.67-.67-4-1v-1h-2c-.33-.67-.67-1.33-1-2-1.67-.33-3.33-.67-5-1v-1h-3c-.33-.67-.67-1.33-1-2h-4v-1h-3v-1c-3-.33-6-.67-9-1v-1h-27Zm-2365 2v1h-9v1c-5.383 1.53-10.647-1.14-14 2-1.5 1.69-1 5.82-1 9v24c2.071 2.36 1 16.28 1 21v58c2.316.87 4.407 1.02 8 1 1.679 1.5 5.824 1 9 1q12-.495 24-1v-1h11v-1h5v-1h7v-1h3v-1h5v-1h2v-1h4v-1c1.666-.33 3.334-.67 5-1v-1c1.333-.33 2.667-.67 4-1v-1c1.333-.33 2.667-.67 4-1 .333-.67.667-1.33 1-2 1.333-.33 2.667-.67 4-1l2-3h2l5-6c.667-.33 1.333-.67 2-1v-2c.667-.33 1.333-.67 2-1v-2c.667-.33 1.333-.67 2-1v-2h1v-2h1v-3h1v-2h1v-4h1v-4h1c1.193-4.05-.052-23.11-1-26h-1v-5h-1v-2h-1v-3c-.667-.33-1.333-.67-2-1v-3c-.667-.33-1.333-.67-2-1v-2c-.667-.33-1.333-.67-2-1v-2c-1.666-1.33-3.334-2.67-5-4-.333-.67-.667-1.33-1-2h-2c-1-1.33-2-2.67-3-4-2-.67-4-1.33-6-2-.333-.67-.667-1.33-1-2-3-.67-6-1.33-9-2-15.847-6.14-34.555-6.18-57-6Zm1450 3c-1.18 7.87 0 22.97 0 34v15h1v42c22.67.89 50.52 2.22 69-4h5v-1c2-.33 4-.67 6-1v-1h2v-1h3c.33-.67.67-1.33 1-2h3c.33-.67.67-1.33 1-2h2c1-1.33 2-2.67 3-4h2c.33-.67.67-1.33 1-2h1v-2c1-.67 2-1.33 3-2 .33-1.33.67-2.67 1-4 .67-.33 1.33-.67 2-1 1.73-3.58 4.91-23.44 3-30h-1v-6h-1v-2h-1c-.33-1.67-.67-3.33-1-5-1.52-2.85-3.99-4.24-5-8h-2v-2c-2.6-.7-3.24-1.57-5-3v-1h-2c-.33-.67-.67-1.33-1-2h-3c-.33-.67-.67-1.33-1-2h-3v-1h-2v-1h-4v-1h-3v-1h-6c-19.88-5.87-48.39.13-68 1Zm1162 0q.495 45.495 1 91c37.15 1.37 82.81 2.59 99-20 1.33-1 2.67-2 4-3v-3c.67-.33 1.33-.67 2-1v-3h1v-2h1q1.005-10.005 2-20-1.995-8.505-4-17c-.67-.33-1.33-.67-2-1-.33-1.33-.67-2.67-1-4-1-.67-2-1.33-3-2v-2c-1.33-1-2.67-2-4-3v-1h-2c-.33-.67-.67-1.33-1-2-1-.33-2-.67-3-1v-1h-2v-1h-2v-1h-3v-1h-2v-1h-4v-1h-3v-1h-6v-1h-6v-1h-38v1q-12 1.005-24 2Zm-1777-2c-.33 2.33-.67 4.67-1 7h-1v2h-1v4h-1v2h-1v4h-1c-.33 1.67-.67 3.33-1 5h-1v2h-1v3h-1v2h-1v4h-1v2h-1v3h-1v2h-1c-.33 1.67-.67 3.33-1 5h-1v4c-.67.33-1.33.67-2 1-.67 3-1.33 6-2 9h-1v2h-1v3h-1c-.33 1.67-.67 3.33-1 5h-1v2h-1v3h-1v2h-1v3h-1v2h-1v4c-.67.33-1.33.67-2 1v4c-.67.33-1.33.67-2 1v4h-1v2h-1v3h-1v2h-1v3h-1c-.33 1.67-.67 3.33-1 5h-1v2h-1v3h-1v2h-1v3c-2.31 5.21-5.67 10.68-7 17h105c-.33-2-.67-4-1-6h-1v-4c-.67-.33-1.33-.67-2-1v-4h-1v-2h-1v-3h-1c-.33-1.67-.67-3.33-1-5h-1v-2h-1v-3h-1v-2h-1v-3h-1v-2h-1v-4c-.67-.33-1.33-.67-2-1-.67-3-1.33-6-2-9h-1c-.33-1.67-.67-3.33-1-5h-1v-2h-1v-3h-1v-2h-1v-4h-1c-.33-1.67-.67-3.33-1-5h-1v-2h-1v-3h-1v-2h-1v-4h-1c-.33-1.67-.67-3.33-1-5h-1v-2h-1v-3h-1v-2h-1v-4h-1v-2h-1c-.33-1.67-.67-3.33-1-5h-1c-.67-3-1.33-6-2-9h-1v-2h-1v-4h-1v-2h-1v-4h-1v-2h-1c-.67-3.33-1.33-6.67-2-10h-3Zm880 115q.495 57.495 1 115h1v1q6.495.495 13 1v1q16.5-.495 33-1v-1h10v-1h5v-1h6v-1h3v-1h4v-1h2v-1h4v-1c1.33-.33 2.67-.67 4-1v-1c1.33-.33 2.67-.67 4-1v-1c1-.33 2-.67 3-1 .33-.67.67-1.33 1-2h2c1.33-1.67 2.67-3.33 4-5 1.33-1 2.67-2 4-3v-2c1-.67 2-1.33 3-2v-2h1c.67-2 1.33-4 2-6h1v-4h1v-2h1v-6a48.785 48.785 0 0 0-2-32v-3c-.67-.33-1.33-.67-2-1v-3c-.67-.33-1.33-.67-2-1v-2c-.67-.33-1.33-.67-2-1v-2c-1.33-1-2.67-2-4-3q-3-3.495-6-7h-2c-.33-.67-.67-1.33-1-2-1.33-.33-2.67-.67-4-1-.33-.67-.67-1.33-1-2h-3c-.33-.67-.67-1.33-1-2h-3v-1h-2v-1c-3.33-.67-6.67-1.33-10-2v-1h-3v-1h-6v-1h-5v-1h-10c-4.56-1.27-24.65-3.79-31-2v1l-13 1Zm-1993 9c-1.7 9.37-.017 19.29 0 29v52h1l1 26q8 .495 16 1v1c4.76 1.32 23.566-.03 27-1h13v-1h11v-1h5v-1h6c23.4-7.27 36.538-13.53 44-37v-7h1v-14h-1v-7h-1v-2h-1v-4c-.667-.33-1.333-.67-2-1v-3c-.667-.33-1.333-.67-2-1v-2c-.667-.33-1.333-.67-2-1v-2c-.667-.33-1.333-.67-2-1l-5-6h-2l-2-3c-1.333-.33-2.667-.67-4-1-17.486-11.06-39.329-14-68-14-10.825 0-23.782-.67-33 1Zm1732 107q7.995.495 16 1v1c4.67 1.3 22.66-.06 26-1h13v-1h11v-1h5v-1h7c23.27-7.51 35.92-12.93 44-36v-8h1v-14h-1v-7h-1v-2h-1v-4c-.67-.33-1.33-.67-2-1v-3c-.67-.33-1.33-.67-2-1v-2c-.67-.33-1.33-.67-2-1v-2c-.67-.33-1.33-.67-2-1-1.67-2-3.33-4-5-6h-2c-.67-1-1.33-2-2-3-1.33-.33-2.67-.67-4-1-17.38-10.99-39.5-14-68-14-10.83 0-23.78-.67-33 1-2.23 6.03-1.05 17.24-1 25 2.11 2.43 1 17.15 1 22v35h1l1 25Zm1160-107v77h1q.495 15 1 30 7.995.495 16 1v1c4.67 1.3 22.66-.06 26-1h13v-1h11v-1h5v-1h7v-1h3v-1h5v-1h2v-1h4v-1h2v-1h3c.33-.67.67-1.33 1-2h3c.33-.67.67-1.33 1-2h2c.33-.67.67-1.33 1-2h2c1.67-2 3.33-4 5-6 .67-.33 1.33-.67 2-1v-2c.67-.33 1.33-.67 2-1v-2c.67-.33 1.33-.67 2-1v-3h1v-2h1c.33-2 .67-4 1-6h1v-6h1c2.44-8.64-2.42-28.87-5-33-.67-.33-1.33-.67-2-1-.33-1.33-.67-2.67-1-4-1.67-1.33-3.33-2.67-5-4-17.27-17.27-44.38-22-79-22-10.83 0-23.78-.67-33 1Z" style="fill-rule:evenodd;fill:#1b1b1b"/><path data-name="Color Fill 2" d="M3396 32h2064v2h16v2h10v2h8v2h6v2h6v2h4v2h6v2h4v2h4v2c3.54.38 3.04 1.241 6 2v2h4v2c3.54.38 3.04 1.241 6 2v2h2v2h4v2h2v2h2v2c3.54.38 3.04 1.241 6 2v2h2v2h2v2h2v2h2v2h2v2h2v2h2v2h2v4h2v2h2v2h2v2h2v4h2v2h2v4h2v2h2v4h2v4h2v4h2v4h2v4h2v6h2v4h2v6h2v8h2v8h2v14h2v1138h-2v14h-2v8h-2v8h-2v6h-2v4h-2v6h-2v4h-2v4h-2v4h-2v4h-2c-.77 3.22-1.51 2.15-2 6h-2v4h-2v2h-2c-.77 3.22-1.51 2.15-2 6h-2v2h-2v2h-2c-.38 3.54-1.24 3.04-2 6h-2v2h-2v2h-2v2h-2v2h-2v2h-2v2h-2v2h-4v2h-2v2h-2v2h-2v2h-4v2h-2v2h-4v2h-2v2h-4v2c-5.29.62-4.65 3.25-10 4v2h-5v1c-1.56.87-2.42.81-5 1v2h-4v2h-6v2h-6c-.33.67-.67 1.33-1 2h-7v2h-10c-.33.67-.67 1.33-1 2h-17v2H3400v-2h-18c-.33-.67-.67-1.33-1-2h-9v-2h-8v-2c-6.43.02-6.77-1.61-12-2v-2h-6v-2h-4v-2h-4v-2h-4v-2h-4v-2h-4v-2c-3.54-.38-3.04-1.24-6-2v-2h-4v-2h-2v-2h-2v-2h-4v-2h-2v-2h-2v-2h-2v-2h-2v-2a14.524 14.524 0 0 1-10-10h-2v-2h-2v-2h-2v-2h-2v-2h-2v-4h-2v-2h-2v-2h-2v-4h-2v-2h-2v-4h-2v-4h-2v-4h-2c-.46-3.99-1.69-3.56-2-8h-2v-4h-2c-.28-5.09-1.77-4.42-2-10h-2v-6h-2v-8h-2v-10h-2v-16h-2V182h2v-16h2v-10h2v-7c.67-.333 1.33-.667 2-1v-6h2v-5h1c.87-1.556.81-2.419 1-5h2v-4h2v-5c.67-.333 1.33-.667 2-1v-2h1c.92-1.373.68-1.76 1-4h2v-4h2v-4h2v-2h2v-4h2v-2h2c.38-3.541 1.24-3.036 2-6h2v-2h2v-2h2v-2h2c.68-5.636 2.49-3.244 4-6v-2h2v-2c4.29-1.146 2.92-3.293 8-4v-2h2v-2h2v-2h2v-2c3.22-.77 2.15-1.508 6-2v-2h2v-2h4v-2h2v-2h4v-2h4v-2h4v-2c3.99-.463 3.56-1.689 8-2v-2h4v-2c5.09-.283 4.42-1.774 10-2v-2h6c.33-.667.67-1.333 1-2h7v-2h10v-2h16v-2Zm1646 295v2c-5.66.634-6.98 4.641-12 6v2h-3c-2.71 4.752-7.63 6.85-12 10-1.67 2-3.33 4-5 6q-5.505 5-11 10v2l-6 5v2c-1.33 1-2.67 2-4 3v2c-.67.333-1.33.667-2 1v2c-1.33 1-2.67 2-4 3v3c-1.33 1-2.67 2-4 3v3c-.67.333-1.33.667-2 1v3l-3 2c-.67 2-1.33 4-2 6h-1v2h-1c-.67 2-1.33 4-2 6h-1v4c-.67.333-1.33.667-2 1-.67 3-1.33 6-2 9-.67.333-1.33.667-2 1v5h-1v2h-1v4h-1v3h-1c-.33 3.333-.67 6.667-1 10-5.62 18.187-4 44.474-4 68v513c0 14.09-1.18 30.87 2 42v8h1v6h1v4h1v6h1v2h1v5h1v3h1v4h1v2h1v3c.67.33 1.33.67 2 1 .67 3 1.33 6 2 9 .67.33 1.33.67 2 1v3c.67.33 1.33.67 2 1v3c.67.33 1.33.67 2 1v3c.67.33 1.33.67 2 1v3c1.33 1 2.67 2 4 3v3h1c.33 1 .67 2 1 3 .67.33 1.33.67 2 1v2h1c.33 1 .67 2 1 3 .67.33 1.33.67 2 1v2c1.33 1 2.67 2 4 3v2c1.33 1 2.67 2 4 3v2q3.495 3 7 6c6.5 6.5 12.5 14.62 20 20h2c1 1.33 2 2.67 3 4h2c.33.67.67 1.33 1 2h2c1 1.33 2 2.67 3 4h3c1 1.33 2 2.67 3 4h3c.33.67.67 1.33 1 2h3c.67 1 1.33 2 2 3 1.33.33 2.67.67 4 1 .33.67.67 1.33 1 2 3 .67 6 1.33 9 2 .33.67.67 1.33 1 2h3c.33.67.67 1.33 1 2h3v1h2v1h4v1h2v1h4v1h3v1c2.67.33 5.33.67 8 1v1c3.33.33 6.67.67 10 1v1q11.505.495 23 1c5.53 1.54 14.85 1 22 1h147c20.08 0 39.91.68 55-4h5v-1c2.67-.33 5.33-.67 8-1v-1h3v-1h4v-1h2v-1h5c.33-.67.67-1.33 1-2h5c.33-.67.67-1.33 1-2 3-.67 6-1.33 9-2 .33-.67.67-1.33 1-2h3c.33-.67.67-1.33 1-2h3c.33-.67.67-1.33 1-2h2c.33-.67.67-1.33 1-2h2c.33-.67.67-1.33 1-2 1.33-.33 2.67-.67 4-1 .67-1 1.33-2 2-3h3c.33-.67.67-1.33 1-2h2q3-3.495 6-7h2q8.505-9 17-18 5.505-4.995 11-10v-2c1-.67 2-1.33 3-2v-2c1.33-1 2.67-2 4-3v-2c.67-.33 1.33-.67 2-1v-2c1.33-1 2.67-2 4-3v-3c1-.67 2-1.33 3-2 .33-1.33.67-2.67 1-4 .67-.33 1.33-.67 2-1v-3c.67-.33 1.33-.67 2-1v-3c.67-.33 1.33-.67 2-1v-3c.67-.33 1.33-.67 2-1v-3c.67-.33 1.33-.67 2-1v-3c.67-.33 1.33-.67 2-1v-5c.67-.33 1.33-.67 2-1v-5c.67-.33 1.33-.67 2-1v-5c.67-.33 1.33-.67 2-1v-5c.67-.33 1.33-.67 2-1q1.005-8.505 2-17c4.38-14.87 4-33.36 4-53V772h-1c-.33-3.333-.67-6.667-1-10h-1v-2h-1v-3c-.67-.333-1.33-.667-2-1v-3h-1c-.33-1-.67-2-1-3h-2v-2c-2.79-1.53-6.12-4.548-7-8a13.057 13.057 0 0 1-6-3v-1l-4-1c-.33-.667-.67-1.333-1-2h-3v-1h-3v-1h-5v-1h-219l-24 1v1h-9v1l-6 2v1h-2c-.67 1-1.33 2-2 3h-3c-.67 1-1.33 2-2 3q-4.005 3.5-8 7v3c-.67.333-1.33.667-2 1v2c-.67.333-1.33.667-2 1v2c-.67.333-1.33.667-2 1v5h-1v4h-1v5h-1c-.34 1.516 1.65 8.843 2 10v5h1v3c.67.333 1.33.667 2 1v3c.67.333 1.33.667 2 1v3c.67.333 1.33.667 2 1v3c.67.333 1.33.667 2 1v2c1.33 1 2.67 2 4 3 .33.667.67 1.333 1 2h2c1.33 1.667 2.67 3.333 4 5l6 1c.33.667.67 1.333 1 2l12 1c10.9 3.079 30.97 1 44 1h149v117s-.83.087-1 2v63h-1v66h-1v5c-.67.33-1.33.67-2 1v5h-1v2h-1v4h-1v2h-1c-.67 3.33-1.33 6.67-2 10-1.33 1-2.67 2-4 3v3c-1 .67-2 1.33-3 2-.33 1.33-.67 2.67-1 4-.67.33-1.33.67-2 1v2c-2.33 1.67-4.67 3.33-7 5q-3 3.495-6 7h-2c-1 1.33-2 2.67-3 4h-2c-.33.67-.67 1.33-1 2h-2c-.33.67-.67 1.33-1 2h-2c-.33.67-.67 1.33-1 2h-3v1c-1 .33-2 .67-3 1-.33.67-.67 1.33-1 2q-6 1.005-12 2v1h-3v1h-6v1h-4v1h-4v1q-52.5-.495-105-1h-105v-1h-2v-1h-4v-1h-2v-1h-4v-1h-3v-1h-5v-1h-2v-1h-4c-.33-.67-.67-1.33-1-2h-3c-1-1.33-2-2.67-3-4h-3c-1-1.33-2-2.67-3-4h-3c-.33-.67-.67-1.33-1-2-2.89-2.66-8.29-8.97-12-10-.7-2.66-1.61-3.15-3-5h-1v-3c-1.33-1-2.67-2-4-3v-3c-1.33-1-2.67-2-4-3v-4h-1v-2h-1v-4h-1v-2h-1v-3c-.67-.33-1.33-.67-2-1v-4h-1v-4h-1q-.495-8.505-1-17c-2.93-10.4-1-32.24-1-45 0-7.44-.62-17.19 1-23V594q.495-64.993 1-130h1v-3h1v-5c.67-.333 1.33-.667 2-1v-5c.67-.333 1.33-.667 2-1v-3c.67-.333 1.33-.667 2-1v-3c.67-.333 1.33-.667 2-1v-3h1c.87-1.412.7-1.728 1-4h2c1.98-7.64 9.09-12.117 14-17l3-4h2c.33-.667.67-1.333 1-2h2l3-4h3c.33-.667.67-1.333 1-2l4-1v-1l4-1v-1h3c.33-.667.67-1.333 1-2h4v-1h2v-1h5v-1h3v-1h6c10.3-2.988 29.58-1 42-1h268c8.31 0 19.37.895 26-1h7v-1c4.35-1.253 10.14.533 13-2 3.6-.906 5.48-3.892 8-6v-1h2c1.67-2 3.33-4 5-6 .67-.333 1.33-.667 2-1v-2c.67-.333 1.33-.667 2-1v-3l3-2c.33-1.333.67-2.667 1-4h1v-4h1v-7h1q-.495-7-1-14h-1v-5h-1v-3c-.67-.333-1.33-.667-2-1v-2c-.67-.333-1.33-.667-2-1v-2c-.67-.333-1.33-.667-2-1v-2c-.67-.333-1.33-.667-2-1v-2h-1c-1.67-2-3.33-4-5-6h-3v-2a8.109 8.109 0 0 1-4-2v-1l-6-2v-1h-4v-1h-4v-1h-4v-1h-73c-7.73 0-17.91-.708-24 1h-141v1h-83c-11.96 0-25.94-.69-35 2h-6v1h-5v1l-8 1v1h-3v1h-4v1h-2v1h-3v1l-5 1v1h-2v1h-3c-.33.667-.67 1.333-1 2h-3c-.33.667-.67 1.333-1 2h-3c-.33.667-.67 1.333-1 2h-3c-.33.667-.67 1.333-1 2h-3v1Zm-637 209h3v1h1v3h2c.24 2.279.14 2.6 1 4h1v3c.67.333 1.33.667 2 1v3c.67.333 1.33.667 2 1v2h1v2h1v2h1v2l3 2v3c.67.333 1.33.667 2 1v3c.67.333 1.33.667 2 1v3c.67.333 1.33.667 2 1v2c1.44 2.574 3.18 4.5 4 8h2c.25 2.279.14 2.6 1 4h1v3c.67.333 1.33.667 2 1v3c.67.333 1.33.667 2 1v3c.67.333 1.33.667 2 1v2h1v2h1v2h1c.91 1.383.68 1.755 1 4h2c.24 2.279.14 2.6 1 4h1v3c.67.333 1.33.667 2 1v3c.67.333 1.33.667 2 1v2h1v2h1v2h1v2l3 2v3c.67.333 1.33.667 2 1v3c.67.333 1.33.667 2 1v3c.67.333 1.33.667 2 1v3c.67.333 1.33.667 2 1 .67 2 1.33 4 2 6h2v4h2c.24 2.279.14 2.6 1 4h1v3c.67.333 1.33.667 2 1v3c.67.333 1.33.667 2 1v2h1v2h1v2h1v2l3 2v3c.67.333 1.33.667 2 1v3c.67.333 1.33.667 2 1v3c.67.333 1.33.667 2 1v3c.67.333 1.33.667 2 1 .67 2 1.33 4 2 6h2c.25 2.279.14 2.6 1 4h1v3c.67.333 1.33.667 2 1v3c.67.333 1.33.667 2 1v3c.67.333 1.33.667 2 1v2h1v2h1v2h1c.91 1.383.68 1.755 1 4h2c.24 2.279.14 2.6 1 4h1v3c.67.333 1.33.667 2 1v3c.67.333 1.33.667 2 1v2h1v2h1v2h1v2l3 2v3c.67.333 1.33.667 2 1v3c.67.333 1.33.667 2 1v3c.67.333 1.33.667 2 1v3c.67.333 1.33.667 2 1v2h1v2h1v2h1c.91 1.383.67 1.756 1 4h2c.24 2.279.14 2.6 1 4h1v3c.67.333 1.33.667 2 1v3c.67.333 1.33.667 2 1v2h1v2h1v2h1v2l3 2v3c.67.333 1.33.667 2 1v3c.67.333 1.33.667 2 1v3c.67.333 1.33.667 2 1v3c.67.333 1.33.667 2 1 .67 2 1.33 4 2 6h2c.25 2.279.14 2.6 1 4h1v3c.67.333 1.33.667 2 1v3c.67.333 1.33.667 2 1v3c.67.333 1.33.667 2 1v2h1v2h1v2h1c.91 1.383.68 1.755 1 4h2c.24 2.279.14 2.6 1 4h1v3c.67.333 1.33.667 2 1v3c.67.333 1.33.667 2 1v2h1v2h1v2h1v2l3 2v3c.67.333 1.33.667 2 1v3c.67.333 1.33.667 2 1v3c.67.333 1.33.667 2 1v3c.67.333 1.33.667 2 1v2h1v2h1v2h1c.91 1.383.67 1.756 1 4h2c.24 2.279.14 2.6 1 4h1v3c.67.333 1.33.667 2 1v3c.67.333 1.33.667 2 1v2h1v2h1v2h1v2l3 2v3c.67.333 1.33.667 2 1v3c.67.333 1.33.667 2 1v3c.67.333 1.33.667 2 1v3c.67.333 1.33.667 2 1 .67 2 1.33 4 2 6h2c.25 2.279.14 2.6 1 4h1v3c.67.333 1.33.667 2 1v3c.67.333 1.33.667 2 1v3c.67.333 1.33.667 2 1v2h1v2h1v2h1c.91 1.383.68 1.755 1 4h2c.24 2.279.14 2.6 1 4h1v3c.67.333 1.33.667 2 1v3c.67.333 1.33.667 2 1v2h1v2h1v2h1v2l3 2v3c.67.333 1.33.667 2 1v3c.67.333 1.33.667 2 1v3c.67.333 1.33.667 2 1v3c.67.33 1.33.67 2 1v2h1v2h1v2h1c.91 1.38.67 1.76 1 4h2c.24 2.28.14 2.6 1 4h1v3c.67.33 1.33.67 2 1v3c.67.33 1.33.67 2 1v2h1v2h1v2h1v2c1 .67 2 1.33 3 2v3c.67.33 1.33.67 2 1v3c.67.33 1.33.67 2 1v3c.67.33 1.33.67 2 1v3c.67.33 1.33.67 2 1 .67 2 1.33 4 2 6h2c.25 2.28.14 2.6 1 4h1v3c.67.33 1.33.67 2 1v3c.67.33 1.33.67 2 1v3c.67.33 1.33.67 2 1v2h1v2h1v2h1c.91 1.38.68 1.76 1 4h2c.24 2.28.14 2.6 1 4h1v3c.67.33 1.33.67 2 1v3c.67.33 1.33.67 2 1v2h1v2h1v2h1v2c1 .67 2 1.33 3 2v3c.67.33 1.33.67 2 1v3c.67.33 1.33.67 2 1v3c.67.33 1.33.67 2 1v3c.67.33 1.33.67 2 1v2h1v2h1v2h1c.91 1.38.67 1.76 1 4h2c.24 2.28.14 2.6 1 4h1v3c.67.33 1.33.67 2 1v3c.67.33 1.33.67 2 1v2h1v2h1v2h1v2c1 .67 2 1.33 3 2v3c.67.33 1.33.67 2 1v3c.67.33 1.33.67 2 1v3c.67.33 1.33.67 2 1v3c.67.33 1.33.67 2 1 .67 2 1.33 4 2 6h2c.25 2.28.14 2.6 1 4h1v3c.67.33 1.33.67 2 1v3c.67.33 1.33.67 2 1v3c.67.33 1.33.67 2 1v2h1v2h1v2h1c.91 1.38.68 1.76 1 4h2c.23 2.28.14 2.61 1 4h1v3c.67.33 1.33.67 2 1v3c1.33 1 2.67 2 4 3 .33 1.33.67 2.67 1 4 2 1.67 4 3.33 6 5 2.64 2.64 3.08 5.43 8 6v2c2.29.29 2.57.16 4 1v1h4c.33.67.67 1.33 1 2h5v1c3.5 1.02 16.84.02 19-1 .33-.67.67-1.33 1-2h3c1-1.33 2-2.67 3-4h2c.33-.67.67-1.33 1-2h2c1-1.33 2-2.67 3-4 1-.33 2-.67 3-1v-2c1-.67 2-1.33 3-2 .33-1.33.67-2.67 1-4 .67-.33 1.33-.67 2-1v-3c.67-.33 1.33-.67 2-1v-4c4.67-11.78 4-28.23 4-45V368c0-11.115.74-23.579-2-32v-4h-1v-2h-1v-4c-.67-.333-1.33-.667-2-1-.33-1-.67-2-1-3h-1v-2l-6-7h-3v-2l-3-1v-1h-3c-.33-.667-.67-1.333-1-2h-3v-1h-2v-1h-4v-1h-4v-1c-6.39-1.895-23.68 2.217-27 4-.33.667-.67 1.333-1 2h-2c-.33.667-.67 1.333-1 2h-2l-3 4c-1.67 1.333-3.33 2.667-5 4v2c-.67.333-1.33.667-2 1v2c-.67.333-1.33.667-2 1v3h-1c-.33 1.333-.67 2.667-1 4h-1v3h-1v5c-2.9 9.7-1 28.2-1 40v623a10.587 10.587 0 0 1-4 1c-.33-1-.67-2-1-3-.67-.33-1.33-.67-2-1v-3c-.67-.333-1.33-.667-2-1v-3c-.67-.333-1.33-.667-2-1v-3c-.67-.333-1.33-.667-2-1v-2h-1v-2h-1v-2h-1v-2l-3-2v-3c-.67-.333-1.33-.667-2-1v-3c-.67-.333-1.33-.667-2-1v-3c-.67-.333-1.33-.667-2-1v-2c-1.44-2.572-3.19-4.5-4-8h-2c-.25-2.279-.14-2.6-1-4h-1v-3c-.67-.333-1.33-.667-2-1v-3c-.67-.333-1.33-.667-2-1v-3c-.67-.333-1.33-.667-2-1v-2h-1v-2h-1v-2h-1c-.91-1.383-.68-1.755-1-4h-2c-.24-2.279-.14-2.6-1-4h-1v-3c-.67-.333-1.33-.667-2-1v-3c-.67-.333-1.33-.667-2-1v-2h-1v-2h-1v-2h-1v-2l-3-2v-3c-.67-.333-1.33-.667-2-1v-3c-.67-.333-1.33-.667-2-1v-3c-.67-.333-1.33-.667-2-1v-3c-.67-.333-1.33-.667-2-1v-2h-1v-2h-1v-2h-1c-.91-1.383-.67-1.756-1-4h-2c-.24-2.279-.14-2.6-1-4h-1v-3c-.67-.333-1.33-.667-2-1v-3c-.67-.333-1.33-.667-2-1v-2h-1v-2h-1v-2h-1v-2l-3-2v-3c-.67-.333-1.33-.667-2-1v-3c-.67-.333-1.33-.667-2-1v-3c-.67-.333-1.33-.667-2-1v-3c-.67-.333-1.33-.667-2-1v-2h-1v-2h-1v-2h-1c-.91-1.383-.67-1.756-1-4h-2c-.24-2.279-.14-2.6-1-4h-1v-3c-.67-.333-1.33-.667-2-1v-3c-.67-.333-1.33-.667-2-1v-2h-1v-2h-1v-2h-1v-2l-3-2v-3c-.67-.333-1.33-.667-2-1v-3c-.67-.333-1.33-.667-2-1v-3c-.67-.333-1.33-.667-2-1v-3c-.67-.333-1.33-.667-2-1-.67-2-1.33-4-2-6h-2v-4h-2c-.24-2.279-.14-2.6-1-4h-1v-3c-.67-.333-1.33-.667-2-1v-3c-.67-.333-1.33-.667-2-1v-2h-1v-2h-1v-2h-1v-2l-3-2v-3c-.67-.333-1.33-.667-2-1v-3c-.67-.333-1.33-.667-2-1v-3c-.67-.333-1.33-.667-2-1v-3c-.67-.333-1.33-.667-2-1-.67-2-1.33-4-2-6h-2c-.24-2.28-.14-2.6-1-4h-1v-3c-.67-.333-1.33-.667-2-1v-3c-.67-.333-1.33-.667-2-1v-3c-.67-.333-1.33-.667-2-1v-2h-1v-2h-1v-2h-1v-2l-3-2v-3c-.67-.333-1.33-.667-2-1v-3c-.67-.333-1.33-.667-2-1v-3c-.67-.333-1.33-.667-2-1v-2c-1.44-2.574-3.18-4.5-4-8h-2c-.25-2.279-.14-2.6-1-4h-1v-3c-.67-.333-1.33-.667-2-1v-3c-.67-.333-1.33-.667-2-1v-3c-.67-.333-1.33-.667-2-1v-2h-1v-2h-1v-2h-1c-.91-1.383-.68-1.755-1-4h-2c-.24-2.279-.14-2.6-1-4h-1v-3c-.67-.333-1.33-.667-2-1v-3c-.67-.333-1.33-.667-2-1v-2h-1v-2h-1v-2h-1v-2l-3-2v-3c-.67-.333-1.33-.667-2-1v-3c-.67-.333-1.33-.667-2-1v-3c-.67-.333-1.33-.667-2-1v-3c-.67-.333-1.33-.667-2-1v-2h-1v-2h-1v-2h-1c-.91-1.383-.67-1.756-1-4h-2c-.24-2.279-.14-2.6-1-4h-1v-3c-.67-.333-1.33-.667-2-1v-3c-.67-.333-1.33-.667-2-1v-2h-1v-2h-1v-2h-1v-2l-3-2v-3c-.67-.333-1.33-.667-2-1v-3c-.67-.333-1.33-.667-2-1v-3c-.67-.333-1.33-.667-2-1v-3c-.67-.333-1.33-.667-2-1v-2h-1v-2h-1v-2h-1c-.91-1.383-.67-1.756-1-4h-2c-.24-2.279-.14-2.6-1-4h-1v-3c-.67-.333-1.33-.667-2-1v-3c-.67-.333-1.33-.667-2-1v-2h-1v-2h-1v-2h-1v-2l-3-2v-3c-.67-.333-1.33-.667-2-1v-3c-.67-.333-1.33-.667-2-1v-3c-.67-.333-1.33-.667-2-1v-3c-.67-.333-1.33-.667-2-1-.67-2-1.33-4-2-6h-2v-4h-2c-.24-2.279-.14-2.6-1-4h-1v-3c-.67-.333-1.33-.667-2-1v-3c-.67-.333-1.33-.667-2-1v-2h-1v-2h-1v-2h-1v-2l-3-2v-3c-.67-.333-1.33-.667-2-1v-3c-.67-.333-1.33-.667-2-1v-3c-.67-.333-1.33-.667-2-1v-3c-.67-.333-1.33-.667-2-1-.67-2-1.33-4-2-6h-2c-.24-2.28-.14-2.6-1-4h-1v-3c-.67-.333-1.33-.667-2-1v-3c-.67-.333-1.33-.667-2-1v-3c-.67-.333-1.33-.667-2-1v-2h-1v-2h-1v-2h-1v-2l-3-2v-3c-.67-.333-1.33-.667-2-1v-3c-.67-.333-1.33-.667-2-1v-3c-.67-.333-1.33-.667-2-1v-2c-1.44-2.574-3.18-4.5-4-8h-2c-.25-2.279-.14-2.6-1-4h-1v-3c-.67-.333-1.33-.667-2-1v-3c-.67-.333-1.33-.667-2-1v-3c-.67-.333-1.33-.667-2-1v-2h-1v-2h-1v-2h-1c-.91-1.383-.68-1.755-1-4h-2c-.24-2.279-.14-2.6-1-4h-1v-3c-.67-.333-1.33-.667-2-1v-3c-.67-.333-1.33-.667-2-1v-2h-1v-2h-1v-2h-1v-2l-3-2v-3c-.67-.333-1.33-.667-2-1v-3c-.67-.333-1.33-.667-2-1v-3c-.67-.333-1.33-.667-2-1v-3c-.67-.333-1.33-.667-2-1v-2h-1v-2h-1v-2h-1c-.91-1.383-.67-1.756-1-4h-2c-.25-2.278-.14-2.6-1-4h-1v-3c-.67-.333-1.33-.667-2-1v-3c-.67-.333-1.33-.667-2-1v-2h-1v-2h-1v-2h-1v-2l-3-2v-3c-.67-.333-1.33-.667-2-1v-3c-.67-.333-1.33-.667-2-1v-2c-.67-.333-1.33-.667-2-1v-2l-9-8c-1.67-2-3.33-4-5-6h-3c-.33-.667-.67-1.333-1-2h-3c-.33-.667-.67-1.333-1-2h-3c-3.39-1.323-12.06-3.8-18-2v1l-7 1c-.33.667-.67 1.333-1 2h-3c-.33.667-.67 1.333-1 2h-3l-12 13v2c-.67.333-1.33.667-2 1v3c-.67.333-1.33.667-2 1v5c-5.66 15.271-4 40.183-4 61v760c0 11.27-1.67 26.54 1 36v11h1v5h1v3h1v3c.67.33 1.33.67 2 1 .33 1.33.67 2.67 1 4q4.5 4.005 9 8c.67 1 1.33 2 2 3h3c.33.67.67 1.33 1 2h3c.33.67.67 1.33 1 2h3v1h2v1c2.94 1.14 17.75 2.22 22 1v-1h6v-1h2v-1h3c.33-.67.67-1.33 1-2h3c.33-.67.67-1.33 1-2h2c.33-.67.67-1.33 1-2 2-1.67 4-3.33 6-5v-2c1.33-1 2.67-2 4-3v-3c.67-.33 1.33-.67 2-1v-3c4.33-10.57 4-25.76 4-41V536Zm-313-230v1h-5v1h-3v1h-3c-.33.667-.67 1.333-1 2h-3c-.33.667-.67 1.333-1 2h-2c-.33.667-.67 1.333-1 2h-2l-3 4h-1v2c-.67.333-1.33.667-2 1v2c-.67.333-1.33.667-2 1v3c-.67.333-1.33.667-2 1v3c-.67.333-1.33.667-2 1-5.28 10.326-3 40.237-3 56v774c0 16.22-2.25 38.13 2 51 .33 2.33.67 4.67 1 7 .67.33 1.33.67 2 1v3c.67.33 1.33.67 2 1 .33 1.33.67 2.67 1 4 2 1.67 4 3.33 6 5 .33.67.67 1.33 1 2h2c.33.67.67 1.33 1 2h2c.33.67.67 1.33 1 2h3c.33.67.67 1.33 1 2h5v1h3v1h14v-1c2.67-.33 5.33-.67 8-1 .33-.67.67-1.33 1-2h3c.33-.67.67-1.33 1-2h2c.33-.67.67-1.33 1-2h2c1-1.33 2-2.67 3-4h1v-2c.67-.33 1.33-.67 2-1v-2c.67-.33 1.33-.67 2-1 7.45-13.54 6-35 6-56V344h-1v-6c-5.51-17.668-19.06-31.847-42-32Zm-447 531c.33 1 .67 2 1 3h1v3c.67.333 1.33.667 2 1v3c.67.333 1.33.667 2 1v3c.67.333 1.33.667 2 1v3c.67.333 1.33.667 2 1 .33 1.333.67 2.667 1 4h1v2h1v2h1v2h1c.91 1.383.68 1.755 1 4h2c.25 2.279.14 2.6 1 4h1v3c.67.333 1.33.667 2 1v3c.67.333 1.33.667 2 1v3c.67.333 1.33.667 2 1v3c.67.333 1.33.667 2 1v3c.67.333 1.33.667 2 1v2h1v2h1v2h1v2h1c.33 1.333.67 2.667 1 4h1c1.53 2.012 1.69 2.42 2 6h2c.25 2.279.14 2.6 1 4h1v3c.67.333 1.33.667 2 1v3c.67.333 1.33.667 2 1v3c.67.333 1.33.667 2 1v3c.67.333 1.33.667 2 1v2h1v2h1v2h1v2h1v2h1c1.85 3.232 2.61 3.447 3 8h2c.24 2.279.14 2.6 1 4h1v3c.67.333 1.33.667 2 1v3c.67.333 1.33.667 2 1v3c.67.333 1.33.667 2 1v3c.67.333 1.33.667 2 1v3c.67.333 1.33.667 2 1 .33 1.333.67 2.667 1 4h1v2h1v2h1v2h1c.91 1.384.67 1.756 1 4h2c.24 2.279.14 2.6 1 4h1v3c.67.333 1.33.667 2 1v3c.67.333 1.33.667 2 1v3c.67.33 1.33.67 2 1v3c.67.33 1.33.67 2 1v3c.67.33 1.33.67 2 1v2h1v2h1v2h1v2h1v2h1v2c1 .67 2 1.33 3 2v3c.67.33 1.33.67 2 1v3c.67.33 1.33.67 2 1v3c.67.33 1.33.67 2 1v3c.67.33 1.33.67 2 1v3c.67.33 1.33.67 2 1v3c.67.33 1.33.67 2 1 .67 2 1.33 4 2 6h1v2h1v2h1v2c1 .67 2 1.33 3 2v4h2c.24 2.28.14 2.6 1 4h1v3c.67.33 1.33.67 2 1v3c.67.33 1.33.67 2 1v3c.67.33 1.33.67 2 1v3c.67.33 1.33.67 2 1v3c.67.33 1.33.67 2 1 .33 1.33.67 2.67 1 4h1v2h1v2h1v2h1c.91 1.38.67 1.76 1 4h2c.24 2.28.14 2.6 1 4h1v3c.67.33 1.33.67 2 1v3c.67.33 1.33.67 2 1v3c.67.33 1.33.67 2 1v3c.67.33 1.33.67 2 1v3c.67.33 1.33.67 2 1v2h1v2h1v2h1v2h1v2h1v2c1 .67 2 1.33 3 2v3c.67.33 1.33.67 2 1v3c.67.33 1.33.67 2 1v3c.67.33 1.33.67 2 1v3c.67.33 1.33.67 2 1v3c.67.33 1.33.67 2 1v3c.67.33 1.33.67 2 1 .33 1.33.67 2.67 1 4 1.73 3.22 4.01 5.77 5 10h2v4h2c.25 2.28.14 2.6 1 4h1v3c.67.33 1.33.67 2 1v3c.67.33 1.33.67 2 1v3c.67.33 1.33.67 2 1v3c.67.33 1.33.67 2 1 .67 2 1.33 4 2 6 .67.33 1.33.67 2 1v2h1c.33 1 .67 2 1 3 .67.33 1.33.67 2 1v2q4.005 3.495 8 7c.67 1 1.33 2 2 3h3c.67 1 1.33 2 2 3 1.33.33 2.67.67 4 1v1c2.67.33 5.33.67 8 1a30.329 30.329 0 0 0 19 0h5v-1h2v-1h3c.33-.67.67-1.33 1-2h3c.33-.67.67-1.33 1-2 1.33-.33 2.67-.67 4-1 .67-1 1.33-2 2-3h2c.33-.67.67-1.33 1-2h2c.33-.67.67-1.33 1-2 1.67-1.33 3.33-2.67 5-4v-2c.67-.33 1.33-.67 2-1v-2c.67-.33 1.33-.67 2-1v-3c.67-.33 1.33-.67 2-1v-3h1v-2h1v-6h1c1.95-6.94-1.58-16.05-3-20v-4h-1v-2h-1v-3c-.67-.33-1.33-.67-2-1v-3c-.67-.33-1.33-.67-2-1v-3c-.67-.33-1.33-.67-2-1-.33-1.33-.67-2.67-1-4h-1v-2h-1v-2h-1v-2h-1c-.91-1.38-.68-1.75-1-4h-2c-.24-2.28-.14-2.6-1-4h-1v-3c-.67-.33-1.33-.67-2-1v-3c-.67-.33-1.33-.67-2-1v-3c-.67-.33-1.33-.67-2-1v-3c-.67-.33-1.33-.67-2-1v-2h-1v-2h-1v-2h-1v-2h-1v-2h-1v-2c-1-.67-2-1.33-3-2v-3c-.67-.33-1.33-.67-2-1v-3c-.67-.33-1.33-.67-2-1v-3c-.67-.33-1.33-.67-2-1v-3c-.67-.33-1.33-.67-2-1v-3c-.67-.33-1.33-.67-2-1v-2h-1v-2h-1v-2h-1v-2h-1v-2h-1v-2c-1-.67-2-1.33-3-2v-3c-.67-.33-1.33-.67-2-1v-3c-.67-.33-1.33-.67-2-1v-3c-.67-.33-1.33-.67-2-1v-3c-.67-.33-1.33-.67-2-1v-3c-.67-.33-1.33-.67-2-1v-3c-.67-.33-1.33-.67-2-1-.33-1.33-.67-2.67-1-4h-1c-.33-1.33-.67-2.67-1-4h-1c-1.53-2.01-1.68-2.42-2-6h-2c-.24-2.28-.14-2.6-1-4h-1v-3c-.67-.33-1.33-.67-2-1v-3c-.67-.33-1.33-.67-2-1v-3c-.67-.33-1.33-.67-2-1v-3c-.67-.33-1.33-.67-2-1v-2c-1.44-2.57-3.18-4.5-4-8h-2v-4h-2c-.24-2.28-.14-2.6-1-4h-1v-3c-.67-.333-1.33-.667-2-1v-3c-.67-.333-1.33-.667-2-1v-3c-.67-.333-1.33-.667-2-1v-3c-.67-.333-1.33-.667-2-1-.33-1.333-.67-2.667-1-4h-1v-2h-1v-2h-1v-2h-1c-.91-1.384-.67-1.756-1-4h-2c-.24-2.28-.14-2.6-1-4h-1v-3c-.67-.333-1.33-.667-2-1v-3c-.67-.333-1.33-.667-2-1v-3c-.67-.333-1.33-.667-2-1v-3c-.67-.333-1.33-.667-2-1v-2h-1v-2h-1v-2h-1v-2h-1v-2h-1v-2l-3-2v-3c-.67-.333-1.33-.667-2-1v-3c-.67-.333-1.33-.667-2-1v-3c-.67-.333-1.33-.667-2-1v-3c-.67-.333-1.33-.667-2-1v-3c-.67-.333-1.33-.667-2-1v-2h-1v-2h-1v-2h-1v-2h-1v-2h-1v-2l-3-2v-3c-.67-.333-1.33-.667-2-1v-3c-.67-.333-1.33-.667-2-1v-3c-.67-.333-1.33-.667-2-1v-3c-.67-.333-1.33-.667-2-1v-3c-.67-.333-1.33-.667-2-1v-3c-.67-.333-1.33-.667-2-1v-2c-1.44-2.574-3.18-4.5-4-8h-2v-4h-2c-.25-2.279-.14-2.6-1-4h-1v-3c-.67-.333-1.33-.667-2-1v-3c-.67-.333-1.33-.667-2-1v-3c-.67-.333-1.33-.667-2-1v-3c-.67-.333-1.33-.667-2-1-.67-2-1.33-4-2-6h-1c-1.85-3.228-2.61-3.451-3-8h-2c-.5-4.163-1.89-4.687-2-10l15-3v-1h2v-1h5c.33-.667.67-1.333 1-2h5c.33-.667.67-1.333 1-2l9-2c.33-.667.67-1.333 1-2h4v-1l6-2v-1h3c.33-.667.67-1.333 1-2h3c.33-.667.67-1.333 1-2h3c.33-.667.67-1.333 1-2l4-1c.67-1 1.33-2 2-3h3c.33-.667.67-1.333 1-2l4-1c.67-1 1.33-2 2-3h2c.33-.667.67-1.333 1-2h2l3-4h2c.33-.667.67-1.333 1-2h2c1.67-2 3.33-4 5-6h2c1.67-2 3.33-4 5-6q4.995-4.5 10-9c.33-1 .67-2 1-3l6-5v-2l3-2v-2l3-2c.33-1.333.67-2.667 1-4 1.33-1 2.67-2 4-3v-3c.67-.333 1.33-.667 2-1v-2c.67-.333 1.33-.667 2-1v-2c.67-.333 1.33-.667 2-1v-3c.67-.333 1.33-.667 2-1v-3c.67-.333 1.33-.667 2-1v-3c.67-.333 1.33-.667 2-1 1.53-1.916 1.83-3.608 2-7h2c.13-2.553.08-3.5 1-5h1v-3c.67-.333 1.33-.667 2-1 .67-3 1.33-6 2-9 .67-.333 1.33-.667 2-1 .67-3 1.33-6 2-9h1v-2h1q1.005-6 2-12h1v-2h1v-4h1v-4c2.59-7.708 3.62-17.757 6-26q.495-7 1-14h1v-12h1v-13h1v-10c.01-8.022.79-18.636-1-25v-13h-1v-12h-1v-7h-1v-8h-1q-.495-6-1-12h-1v-5h-1v-5h-1v-4h-1v-4h-1v-5h-1v-3h-1v-4h-1v-2h-1v-5h-1v-2h-1q-1.005-5-2-10c-.67-.333-1.33-.667-2-1v-5c-.67-.333-1.33-.667-2-1v-4h-1c-.67-2-1.33-4-2-6h-1v-3c-.67-.333-1.33-.667-2-1v-4h-1v-2h-1c-.33-1.333-.67-2.667-1-4-1.73-3.239-4.02-5.706-5-10h-2c-.25-2.278-.14-2.6-1-4h-1v-3c-.67-.333-1.33-.667-2-1-.33-1.333-.67-2.667-1-4l-3-2v-3c-1.33-1-2.67-2-4-3v-2c-.67-.333-1.33-.667-2-1v-2c-1.33-1-2.67-2-4-3-.33-1-.67-2-1-3-.67-.333-1.33-.667-2-1v-2q-7.005-6.5-14-13c-1.67-2-3.33-4-5-6h-2c-.33-.667-.67-1.333-1-2h-2c-2.85-2-.51-3.315-6-4v-2l-3-1v-1h-3c-.67-1-1.33-2-2-3l-6-2v-1h-2v-1l-6-2v-1h-4c-.33-.667-.67-1.333-1-2h-3v-1h-2v-1h-4v-1h-3v-1h-3v-1l-11-2v-1h-5c-6.43-2.012-15.34-3.079-22-5l-40-3h-19v-1h-232c-6.83 0-15.78-.523-21 1h-6v1h-2v1h-4v1h-2v1h-3l-3 4-4 1c-.67 1-1.33 2-2 3h-1v2c-.67.333-1.33.667-2 1v2c-.67.333-1.33.667-2 1v3c-.67.333-1.33.667-2 1v3c-.67.333-1.33.667-2 1v3h-1v2h-1q-.495 10.5-1 21v781c0 15.29-2.44 44.92 2 56h1c.67 2 1.33 4 2 6h1v2c1 .67 2 1.33 3 2 .33 1 .67 2 1 3h2c.33.67.67 1.33 1 2h1c1 1.33 2 2.67 3 4h3c.67 1 1.33 2 2 3h2v1h4c.33.67.67 1.33 1 2h5v1c4.21 1.22 19.1.14 22-1v-1h2v-1h3c.33-.67.67-1.33 1-2h3c.33-.67.67-1.33 1-2h2c.33-.67.67-1.33 1-2h2v-1c1.33-1 2.67-2 4-3v-3c1-.67 2-1.33 3-2 .33-2 .67-4 1-6 .67-.33 1.33-.67 2-1v-3h1v-2h1v-6h1V836c7.81-2.85 29.58-1 40-1h90c1.7 1.49 5.81 1 9 1 7.46.011 16.04-.029 22 1Zm-160-107V424c5.08-1.851 14.27-1 21-1h193c3.15 2.642 10.34-.33 15 1v1h9v1h5v1h6v1h3v1h5v1l6 1v1l6 1v1l5 1v1l4 1v1l4 1c.33.667.67 1.333 1 2l4 1c.33.667.67 1.333 1 2l4 1c.33.667.67 1.333 1 2h1c.33.667.67 1.333 1 2h2c.67 1 1.33 2 2 3h2q3.495 4 7 8l3 2v2l3 2v2c1.33 1 2.67 2 4 3 .33 1.333.67 2.667 1 4l3 2c.33 1.333.67 2.667 1 4 .67.333 1.33.667 2 1 .67 2 1.33 4 2 6h1v2h1v2h1c.67 2 1.33 4 2 6h1v3h1v2h1c.33 2 .67 4 1 6h1v2h1v4h1v3h1v4h1v4h1v5h1v4h1v7h1q.495 11.5 1 23h1v18h-1v15h-1v7h-1v7h-1v4h-1v6h-1c-.33 2.333-.67 4.667-1 7h-1v3h-1v4h-1v3h-1v3h-1v3h-1v2h-1v3h-1v2h-1v3h-1c-.67 2-1.33 4-2 6h-1v2h-1v2h-1c-.67 2-1.33 4-2 6h-1c-.33 1-.67 2-1 3-.67.333-1.33.667-2 1-.33 1.333-.67 2.667-1 4-.67.333-1.33.667-2 1-.33 1-.67 2-1 3l-3 2v2q-4.995 4.5-10 9c-1.67 2-3.33 4-5 6h-2c-.33.667-.67 1.333-1 2h-2c-.67 1-1.33 2-2 3l-4 1c-.33.667-.67 1.333-1 2l-4 1c-.33.667-.67 1.333-1 2h-2v1l-4 1v1h-3v1h-2v1l-5 1v1l-7 1v1h-3v1l-7 1v1l-10 1v1h-7v1h-7v1h-11v1h-166c-15.04 0-34.14.691-46 0Z" style="fill:#4e7dd5;fill-rule:evenodd"/> 
	</symbol>
</svg>